<svg xmlns="http://www.w3.org/2000/svg" xmlns:xlink="http://www.w3.org/1999/xlink" width="1640" zoomAndPan="magnify" viewBox="0 0 1230 693.000001" height="924" preserveAspectRatio="xMidYMid meet" version="1.0"><defs><filter x="0%" y="0%" width="100%" height="100%" id="1b5d9eb05d"><feColorMatrix values="0 0 0 0 1 0 0 0 0 1 0 0 0 0 1 0 0 0 1 0" color-interpolation-filters="sRGB"/></filter><g/><mask id="1ae6ddfe0d"><g filter="url(#1b5d9eb05d)"><rect x="-123" width="1476" fill="#000000" y="-69.3" height="831.600001" fill-opacity="0.1686"/></g></mask><clipPath id="1ce3b98b04"><rect x="0" width="1051" y="0" height="692"/></clipPath></defs><g mask="url(#1ae6ddfe0d)"><g transform="matrix(1, 0, 0, 1, 71, -0.000000000000066872)"><g clip-path="url(#1ce3b98b04)"><g fill="#000000" fill-opacity="1"><g transform="translate(1.005413, 646.043023)"><g><path d="M 79.859375 0 L 101.421875 0 L 101.421875 -536.652344 L 416.863281 -0.796875 L 416.863281 0 L 438.425781 0 L 438.425781 -573.386719 L 416.863281 -573.386719 L 416.863281 -107.011719 L 142.148438 -573.386719 L 79.859375 -573.386719 Z M 79.859375 0 "/></g></g></g><g fill="#000000" fill-opacity="1"><g transform="translate(519.287907, 646.043023)"><g><path d="M 79.859375 0 L 297.074219 0.796875 C 383.320312 0.796875 451.203125 -62.289062 451.203125 -150.132812 C 451.203125 -223.605469 404.085938 -275.511719 337.800781 -293.878906 C 390.507812 -316.242188 426.445312 -363.355469 426.445312 -426.445312 C 426.445312 -509.5 364.953125 -573.386719 284.296875 -573.386719 L 79.859375 -573.386719 Z M 134.164062 -300.269531 L 134.164062 -551.824219 L 262.734375 -551.824219 C 323.429688 -551.824219 372.941406 -487.136719 372.941406 -426.445312 C 372.941406 -365.753906 323.429688 -300.269531 262.734375 -300.269531 Z M 134.164062 -20.761719 L 134.164062 -278.707031 L 284.296875 -278.707031 C 346.585938 -278.707031 397.695312 -212.425781 397.695312 -150.132812 C 397.695312 -87.84375 346.585938 -20.761719 284.296875 -20.761719 Z M 134.164062 -20.761719 "/></g></g></g></g></g></g><g fill="#000000" fill-opacity="1"><g transform="translate(5.250961, 374.509742)"><g><path d="M 62.921875 -62.386719 L 62.921875 -62.707031 C 59.929688 -66.660156 56.296875 -69.652344 52.238281 -71.679688 C 48.179688 -73.710938 43.585938 -74.777344 38.5625 -74.777344 L 6.089844 -74.777344 C 5.554688 -74.777344 5.339844 -74.457031 5.339844 -74.03125 C 5.339844 -73.601562 5.449219 -73.390625 5.875 -73.28125 L 9.402344 -71.894531 C 10.363281 -71.464844 11.109375 -70.824219 11.75 -69.972656 C 12.285156 -69.117188 12.605469 -68.15625 12.605469 -67.085938 L 12.605469 -7.371094 C 12.605469 -6.300781 12.285156 -5.234375 11.75 -4.378906 C 11.109375 -3.523438 10.363281 -2.882812 9.402344 -2.5625 L 5.875 -1.175781 C 5.449219 -0.960938 5.339844 -0.746094 5.339844 -0.425781 C 5.339844 0.105469 5.554688 0.320312 6.089844 0.320312 L 38.671875 0.320312 C 43.90625 0.320312 48.5 -0.746094 52.558594 -2.882812 C 56.511719 -5.019531 59.824219 -7.796875 62.601562 -11.324219 C 65.269531 -14.847656 67.300781 -18.90625 68.6875 -23.394531 C 69.972656 -27.882812 70.71875 -32.367188 70.71875 -37.070312 C 70.71875 -41.875 69.972656 -46.46875 68.6875 -50.742188 C 67.300781 -55.015625 65.378906 -58.96875 62.921875 -62.386719 Z M 38.457031 -4.273438 L 38.671875 -4.273438 L 22.007812 -4.273438 C 20.9375 -4.273438 20.511719 -4.699219 20.511719 -5.769531 L 20.511719 -67.726562 C 20.511719 -68.261719 20.722656 -68.796875 21.152344 -69.222656 C 21.578125 -69.652344 22.007812 -69.863281 22.648438 -69.863281 L 38.457031 -69.863281 C 45.933594 -69.863281 51.917969 -66.871094 56.402344 -60.996094 C 57.367188 -59.609375 58.21875 -58.007812 58.96875 -56.082031 C 59.714844 -54.160156 60.355469 -52.023438 60.890625 -49.886719 C 61.425781 -47.644531 61.851562 -45.402344 62.171875 -43.15625 C 62.386719 -40.914062 62.601562 -38.882812 62.601562 -36.960938 C 62.601562 -32.476562 62.066406 -28.308594 61.105469 -24.355469 C 60.144531 -20.402344 58.648438 -16.984375 56.722656 -13.996094 C 54.695312 -11.003906 52.132812 -8.546875 49.140625 -6.835938 C 46.148438 -5.128906 42.515625 -4.273438 38.457031 -4.273438 Z M 38.457031 -4.273438 "/></g></g></g><g fill="#000000" fill-opacity="1"><g transform="translate(81.303019, 374.509742)"><g><path d="M 52.984375 -1.066406 L 52.773438 -1.066406 L 50.742188 -1.816406 C 47.324219 -3.097656 44.761719 -5.339844 43.15625 -8.757812 L 33.757812 -27.242188 C 33.542969 -27.453125 33.648438 -27.667969 33.96875 -27.667969 C 36.320312 -27.882812 38.351562 -28.414062 40.058594 -29.378906 C 41.769531 -30.339844 43.265625 -31.511719 44.441406 -32.902344 C 45.613281 -34.292969 46.46875 -35.785156 47.109375 -37.496094 C 47.75 -39.097656 48.070312 -40.699219 48.070312 -42.195312 C 48.070312 -43.90625 47.644531 -45.722656 47.003906 -47.539062 C 46.363281 -49.246094 45.292969 -50.847656 44.011719 -52.238281 C 42.730469 -53.519531 41.019531 -54.695312 39.097656 -55.550781 C 37.070312 -56.402344 34.824219 -56.832031 32.261719 -56.832031 L 5.875 -56.832031 C 5.449219 -56.832031 5.339844 -56.617188 5.339844 -56.296875 C 5.339844 -55.976562 5.449219 -55.761719 5.660156 -55.761719 L 7.585938 -55.015625 C 8.546875 -54.589844 9.292969 -53.945312 9.933594 -53.09375 C 10.46875 -52.238281 10.789062 -51.277344 10.789062 -50.207031 L 10.789062 -5.554688 C 10.789062 -3.738281 9.933594 -2.5625 8.332031 -2.03125 L 5.660156 -0.960938 C 5.449219 -0.746094 5.339844 -0.640625 5.339844 -0.425781 C 5.339844 0 5.449219 0.105469 5.875 0.105469 L 21.898438 0.105469 C 22.21875 0.105469 22.433594 0 22.433594 -0.425781 C 22.433594 -0.640625 22.328125 -0.746094 22.113281 -0.960938 L 19.441406 -2.03125 C 17.734375 -2.5625 16.984375 -3.738281 16.984375 -5.554688 L 16.984375 -26.277344 C 16.984375 -27.027344 17.304688 -27.453125 18.160156 -27.453125 L 26.277344 -27.453125 C 26.707031 -27.453125 27.132812 -27.242188 27.347656 -26.921875 L 38.136719 -5.554688 C 39.097656 -3.738281 40.378906 -2.351562 41.984375 -1.390625 C 43.585938 -0.425781 45.292969 0 47.21875 0 L 52.773438 0 C 53.09375 0 53.304688 -0.105469 53.304688 -0.535156 C 53.304688 -0.746094 53.199219 -0.855469 52.984375 -1.066406 Z M 32.476562 -31.191406 L 18.265625 -31.085938 C 17.414062 -31.085938 17.09375 -31.40625 17.09375 -32.261719 L 17.09375 -52.453125 C 17.09375 -53.199219 17.414062 -53.625 18.265625 -53.625 L 32.476562 -53.625 C 35.785156 -53.625 38.242188 -52.453125 39.847656 -50.316406 C 41.339844 -48.070312 42.195312 -45.402344 42.195312 -42.410156 C 42.195312 -38.992188 41.339844 -36.214844 39.847656 -34.183594 C 38.351562 -32.15625 35.894531 -31.191406 32.476562 -31.191406 Z M 32.476562 -31.191406 "/></g></g></g><g fill="#000000" fill-opacity="1"><g transform="translate(139.730653, 374.509742)"><g><path d="M 9.1875 0.105469 C 10.253906 0.105469 11.109375 -0.214844 11.859375 -0.960938 C 12.605469 -1.710938 13.03125 -2.671875 13.03125 -3.738281 C 13.03125 -4.808594 12.605469 -5.660156 11.859375 -6.410156 C 11.109375 -7.15625 10.253906 -7.585938 9.1875 -7.585938 C 8.117188 -7.585938 7.15625 -7.15625 6.410156 -6.410156 C 5.660156 -5.660156 5.339844 -4.808594 5.339844 -3.738281 C 5.339844 -2.671875 5.660156 -1.710938 6.410156 -0.960938 C 7.15625 -0.214844 8.117188 0.105469 9.1875 0.105469 Z M 9.1875 0.105469 "/></g></g></g><g fill="#000000" fill-opacity="1"><g transform="translate(157.995959, 374.509742)"><g/></g></g><g fill="#000000" fill-opacity="1"><g transform="translate(195.060653, 374.509742)"><g><path d="M 72.855469 -1.390625 L 73.070312 -1.390625 L 70.613281 -2.351562 C 69.328125 -2.777344 68.261719 -3.632812 67.515625 -4.699219 C 66.660156 -5.769531 66.339844 -7.050781 66.339844 -8.546875 L 66.339844 -66.125 C 66.339844 -67.515625 66.660156 -68.796875 67.515625 -69.863281 C 68.261719 -70.933594 69.328125 -71.785156 70.613281 -72.320312 L 73.070312 -73.28125 C 73.390625 -73.390625 73.601562 -73.601562 73.601562 -74.03125 C 73.601562 -74.457031 73.28125 -74.777344 72.855469 -74.777344 L 55.230469 -74.777344 C 54.695312 -74.777344 54.480469 -74.457031 54.480469 -74.03125 C 54.480469 -73.601562 54.589844 -73.390625 55.015625 -73.28125 L 57.472656 -72.320312 C 58.753906 -71.785156 59.714844 -70.933594 60.570312 -69.863281 C 61.316406 -68.796875 61.746094 -67.515625 61.746094 -66.125 L 61.746094 -15.382812 C 61.746094 -15.167969 61.636719 -15.0625 61.53125 -15.0625 C 61.316406 -15.0625 61.210938 -15.0625 61.105469 -15.277344 L 17.734375 -74.136719 C 17.304688 -74.5625 16.878906 -74.777344 16.453125 -74.777344 L 6.089844 -74.777344 C 5.554688 -74.777344 5.339844 -74.457031 5.339844 -74.03125 C 5.339844 -73.601562 5.449219 -73.390625 5.875 -73.28125 L 8.332031 -72.320312 C 9.613281 -71.785156 10.574219 -70.933594 11.429688 -69.863281 C 12.179688 -68.796875 12.605469 -67.515625 12.605469 -66.125 L 12.605469 -8.546875 C 12.605469 -7.050781 12.179688 -5.769531 11.429688 -4.699219 C 10.574219 -3.632812 9.613281 -2.777344 8.332031 -2.351562 L 5.875 -1.390625 C 5.449219 -1.175781 5.339844 -0.960938 5.339844 -0.640625 C 5.339844 -0.105469 5.554688 0.105469 6.089844 0.105469 L 23.609375 0.105469 C 24.035156 0.105469 24.355469 -0.105469 24.355469 -0.640625 C 24.355469 -0.960938 24.144531 -1.175781 23.820312 -1.390625 L 21.363281 -2.351562 C 20.082031 -2.777344 19.015625 -3.632812 18.265625 -4.699219 C 17.414062 -5.769531 16.984375 -7.050781 16.984375 -8.4375 L 16.984375 -59.289062 C 16.984375 -59.394531 16.984375 -59.503906 17.199219 -59.503906 C 17.304688 -59.503906 17.414062 -59.503906 17.625 -59.394531 L 60.996094 -0.535156 C 61.210938 -0.105469 61.636719 0.105469 62.28125 0.105469 L 72.640625 0.105469 C 73.070312 0.105469 73.390625 -0.105469 73.390625 -0.640625 C 73.390625 -0.960938 73.175781 -1.175781 72.855469 -1.390625 Z M 72.855469 -1.390625 "/></g></g></g><g fill="#000000" fill-opacity="1"><g transform="translate(273.889892, 374.509742)"><g><path d="M 33.757812 -56.9375 C 29.804688 -56.9375 26.066406 -56.191406 22.648438 -54.695312 C 19.230469 -53.199219 16.128906 -51.0625 13.566406 -48.5 C 11.003906 -45.933594 8.972656 -42.835938 7.476562 -39.417969 C 5.980469 -36 5.234375 -32.261719 5.234375 -28.414062 C 5.234375 -24.464844 5.980469 -20.722656 7.476562 -17.304688 C 8.972656 -13.886719 11.003906 -10.789062 13.566406 -8.226562 C 16.128906 -5.660156 19.230469 -3.632812 22.648438 -2.136719 C 26.066406 -0.640625 29.804688 0.105469 33.757812 0.105469 C 37.601562 0.105469 41.339844 -0.640625 44.761719 -2.136719 C 48.179688 -3.632812 51.277344 -5.660156 53.839844 -8.226562 C 56.402344 -10.789062 58.539062 -13.886719 60.035156 -17.304688 C 61.53125 -20.722656 62.28125 -24.464844 62.28125 -28.414062 C 62.28125 -32.261719 61.53125 -36 60.035156 -39.417969 C 58.539062 -42.835938 56.402344 -45.933594 53.839844 -48.5 C 51.277344 -51.0625 48.179688 -53.199219 44.761719 -54.695312 C 41.339844 -56.191406 37.601562 -56.9375 33.757812 -56.9375 Z M 33.757812 -3.523438 C 30.230469 -3.523438 27.132812 -4.167969 24.355469 -5.660156 C 21.578125 -7.050781 19.230469 -8.972656 17.304688 -11.324219 C 15.382812 -13.671875 13.886719 -16.34375 12.820312 -19.335938 C 11.75 -22.328125 11.324219 -25.316406 11.324219 -28.414062 C 11.324219 -31.40625 11.75 -34.503906 12.710938 -37.496094 C 13.566406 -40.488281 14.957031 -43.15625 16.878906 -45.507812 C 18.800781 -47.859375 21.152344 -49.675781 23.929688 -51.167969 C 26.707031 -52.558594 29.910156 -53.304688 33.648438 -53.304688 C 37.496094 -53.304688 40.808594 -52.558594 43.691406 -51.167969 C 46.46875 -49.675781 48.820312 -47.859375 50.636719 -45.507812 C 52.453125 -43.15625 53.839844 -40.488281 54.695312 -37.496094 C 55.550781 -34.503906 56.082031 -31.40625 56.082031 -28.414062 C 56.082031 -25.316406 55.550781 -22.328125 54.589844 -19.335938 C 53.519531 -16.34375 52.132812 -13.671875 50.207031 -11.324219 C 48.285156 -8.972656 46.042969 -7.050781 43.265625 -5.660156 C 40.488281 -4.167969 37.28125 -3.523438 33.757812 -3.523438 Z M 33.757812 -3.523438 "/></g></g></g><g fill="#000000" fill-opacity="1"><g transform="translate(341.50358, 374.509742)"><g><path d="M 52.984375 -1.066406 L 52.773438 -1.066406 L 50.742188 -1.816406 C 47.324219 -3.097656 44.761719 -5.339844 43.15625 -8.757812 L 33.757812 -27.242188 C 33.542969 -27.453125 33.648438 -27.667969 33.96875 -27.667969 C 36.320312 -27.882812 38.351562 -28.414062 40.058594 -29.378906 C 41.769531 -30.339844 43.265625 -31.511719 44.441406 -32.902344 C 45.613281 -34.292969 46.46875 -35.785156 47.109375 -37.496094 C 47.75 -39.097656 48.070312 -40.699219 48.070312 -42.195312 C 48.070312 -43.90625 47.644531 -45.722656 47.003906 -47.539062 C 46.363281 -49.246094 45.292969 -50.847656 44.011719 -52.238281 C 42.730469 -53.519531 41.019531 -54.695312 39.097656 -55.550781 C 37.070312 -56.402344 34.824219 -56.832031 32.261719 -56.832031 L 5.875 -56.832031 C 5.449219 -56.832031 5.339844 -56.617188 5.339844 -56.296875 C 5.339844 -55.976562 5.449219 -55.761719 5.660156 -55.761719 L 7.585938 -55.015625 C 8.546875 -54.589844 9.292969 -53.945312 9.933594 -53.09375 C 10.46875 -52.238281 10.789062 -51.277344 10.789062 -50.207031 L 10.789062 -5.554688 C 10.789062 -3.738281 9.933594 -2.5625 8.332031 -2.03125 L 5.660156 -0.960938 C 5.449219 -0.746094 5.339844 -0.640625 5.339844 -0.425781 C 5.339844 0 5.449219 0.105469 5.875 0.105469 L 21.898438 0.105469 C 22.21875 0.105469 22.433594 0 22.433594 -0.425781 C 22.433594 -0.640625 22.328125 -0.746094 22.113281 -0.960938 L 19.441406 -2.03125 C 17.734375 -2.5625 16.984375 -3.738281 16.984375 -5.554688 L 16.984375 -26.277344 C 16.984375 -27.027344 17.304688 -27.453125 18.160156 -27.453125 L 26.277344 -27.453125 C 26.707031 -27.453125 27.132812 -27.242188 27.347656 -26.921875 L 38.136719 -5.554688 C 39.097656 -3.738281 40.378906 -2.351562 41.984375 -1.390625 C 43.585938 -0.425781 45.292969 0 47.21875 0 L 52.773438 0 C 53.09375 0 53.304688 -0.105469 53.304688 -0.535156 C 53.304688 -0.746094 53.199219 -0.855469 52.984375 -1.066406 Z M 32.476562 -31.191406 L 18.265625 -31.085938 C 17.414062 -31.085938 17.09375 -31.40625 17.09375 -32.261719 L 17.09375 -52.453125 C 17.09375 -53.199219 17.414062 -53.625 18.265625 -53.625 L 32.476562 -53.625 C 35.785156 -53.625 38.242188 -52.453125 39.847656 -50.316406 C 41.339844 -48.070312 42.195312 -45.402344 42.195312 -42.410156 C 42.195312 -38.992188 41.339844 -36.214844 39.847656 -34.183594 C 38.351562 -32.15625 35.894531 -31.191406 32.476562 -31.191406 Z M 32.476562 -31.191406 "/></g></g></g><g fill="#000000" fill-opacity="1"><g transform="translate(399.931238, 374.509742)"><g><path d="M 45.933594 -31.621094 L 45.933594 -31.511719 C 44.761719 -32.476562 43.15625 -33.328125 41.234375 -34.183594 C 39.3125 -35.039062 37.496094 -35.574219 36 -35.785156 C 37.175781 -36.535156 38.242188 -37.601562 39.097656 -39.097656 C 39.953125 -40.59375 40.488281 -42.195312 40.488281 -43.90625 C 40.488281 -45.402344 40.167969 -47.003906 39.632812 -48.605469 C 39.097656 -50.101562 38.351562 -51.488281 37.390625 -52.773438 C 36.320312 -53.945312 35.144531 -54.910156 33.648438 -55.65625 C 32.15625 -56.402344 30.339844 -56.832031 28.414062 -56.832031 L 5.980469 -56.832031 C 5.554688 -56.832031 5.449219 -56.617188 5.449219 -56.296875 C 5.449219 -55.976562 5.554688 -55.761719 5.769531 -55.761719 L 8.4375 -54.695312 C 10.042969 -54.054688 10.894531 -52.878906 10.894531 -51.167969 L 10.894531 -5.769531 C 10.894531 -3.953125 10.042969 -2.777344 8.4375 -2.242188 L 5.769531 -1.175781 C 5.554688 -0.960938 5.449219 -0.855469 5.449219 -0.640625 C 5.449219 -0.214844 5.554688 -0.105469 5.980469 -0.105469 L 28.523438 -0.105469 C 32.582031 -0.105469 36.105469 -0.640625 39.097656 -1.710938 C 42.089844 -2.777344 44.546875 -4.167969 46.46875 -5.875 C 48.390625 -7.585938 49.886719 -9.613281 50.847656 -11.859375 C 51.808594 -13.996094 52.34375 -16.238281 52.34375 -18.480469 C 52.34375 -20.9375 51.703125 -23.289062 50.636719 -25.636719 C 49.566406 -27.882812 47.964844 -29.910156 45.933594 -31.621094 Z M 16.878906 -37.816406 L 16.878906 -52.453125 C 16.878906 -53.199219 17.199219 -53.625 18.054688 -53.625 L 28.414062 -53.625 C 29.484375 -53.625 30.445312 -53.199219 31.300781 -52.453125 C 32.046875 -51.703125 32.6875 -50.847656 33.117188 -49.78125 C 33.542969 -48.710938 33.863281 -47.75 34.078125 -46.683594 C 34.292969 -45.613281 34.398438 -44.761719 34.398438 -44.117188 C 34.398438 -43.15625 34.183594 -42.195312 33.96875 -41.234375 C 33.757812 -40.167969 33.328125 -39.417969 32.902344 -38.777344 C 32.261719 -38.136719 31.621094 -37.601562 30.980469 -37.175781 C 30.230469 -36.75 29.378906 -36.640625 28.414062 -36.640625 L 18.054688 -36.640625 C 17.199219 -36.640625 16.878906 -36.960938 16.878906 -37.816406 Z M 42.089844 -8.011719 L 42.089844 -7.90625 C 38.777344 -5.128906 34.183594 -3.847656 28.414062 -3.847656 L 18.054688 -3.847656 C 17.199219 -3.847656 16.878906 -4.167969 16.878906 -5.019531 L 16.878906 -32.15625 C 16.878906 -32.902344 17.199219 -33.328125 18.054688 -33.328125 L 28.414062 -33.328125 C 31.40625 -33.328125 34.078125 -32.796875 36.320312 -31.941406 C 38.5625 -30.980469 40.378906 -29.804688 41.875 -28.308594 C 43.371094 -26.8125 44.441406 -25.316406 45.1875 -23.609375 C 45.828125 -21.898438 46.253906 -20.296875 46.253906 -18.800781 C 46.253906 -17.945312 46.148438 -17.09375 45.933594 -16.023438 C 45.722656 -14.957031 45.507812 -13.996094 45.1875 -13.03125 C 44.761719 -11.964844 44.332031 -11.003906 43.796875 -10.148438 C 43.265625 -9.1875 42.730469 -8.4375 42.089844 -8.011719 Z M 42.089844 -8.011719 "/></g></g></g><g fill="#000000" fill-opacity="1"><g transform="translate(457.611186, 374.509742)"><g><path d="M 46.148438 -9.722656 L 45.933594 -8.972656 C 45.613281 -8.972656 45.402344 -8.867188 45.402344 -8.652344 L 44.652344 -6.730469 C 44.226562 -5.660156 43.691406 -4.914062 42.835938 -4.378906 C 41.984375 -3.738281 41.019531 -3.523438 40.058594 -3.523438 L 17.945312 -3.523438 C 17.09375 -3.523438 16.773438 -3.847656 16.773438 -4.699219 L 16.773438 -32.902344 C 16.773438 -33.648438 17.09375 -34.078125 17.945312 -34.078125 L 31.40625 -34.078125 C 32.476562 -34.078125 33.4375 -33.757812 34.292969 -33.222656 C 35.144531 -32.582031 35.785156 -31.835938 36.214844 -30.871094 L 36.960938 -28.949219 C 36.960938 -28.734375 37.175781 -28.628906 37.496094 -28.628906 C 37.816406 -28.628906 38.03125 -28.734375 38.03125 -29.164062 L 38.03125 -42.515625 C 38.03125 -42.835938 37.816406 -43.050781 37.496094 -43.050781 C 37.175781 -43.050781 36.960938 -42.945312 36.960938 -42.730469 L 36.214844 -40.808594 C 35.785156 -39.738281 35.144531 -38.992188 34.292969 -38.457031 C 33.4375 -37.816406 32.476562 -37.601562 31.40625 -37.601562 L 17.945312 -37.601562 C 17.09375 -37.601562 16.773438 -37.921875 16.773438 -38.777344 L 16.773438 -52.558594 C 16.773438 -53.304688 17.09375 -53.734375 17.945312 -53.734375 L 36.960938 -53.734375 C 37.921875 -53.625 38.882812 -53.304688 39.738281 -52.773438 C 40.59375 -52.132812 41.128906 -51.382812 41.554688 -50.421875 L 42.304688 -48.5 C 42.304688 -48.285156 42.515625 -48.179688 42.835938 -48.179688 C 43.15625 -48.179688 43.371094 -48.285156 43.371094 -48.710938 L 43.371094 -56.082031 C 43.371094 -56.832031 42.945312 -57.257812 42.195312 -57.257812 L 5.980469 -57.257812 C 5.554688 -57.257812 5.449219 -57.046875 5.449219 -56.722656 C 5.449219 -56.402344 5.554688 -56.191406 5.769531 -56.191406 L 8.332031 -55.230469 C 9.933594 -54.589844 10.789062 -53.414062 10.789062 -51.703125 L 10.789062 -6.195312 C 10.789062 -4.378906 9.933594 -3.203125 8.332031 -2.671875 L 5.769531 -1.710938 C 5.554688 -1.496094 5.449219 -1.390625 5.449219 -1.175781 C 5.449219 -0.746094 5.554688 -0.640625 5.980469 -0.640625 L 45.507812 -0.640625 C 46.253906 -0.640625 46.683594 -0.960938 46.683594 -1.816406 L 46.683594 -9.1875 C 46.683594 -9.507812 46.46875 -9.722656 46.148438 -9.722656 Z M 46.148438 -9.722656 "/></g></g></g><g fill="#000000" fill-opacity="1"><g transform="translate(509.523122, 374.509742)"><g><path d="M 52.984375 -1.066406 L 52.773438 -1.066406 L 50.742188 -1.816406 C 47.324219 -3.097656 44.761719 -5.339844 43.15625 -8.757812 L 33.757812 -27.242188 C 33.542969 -27.453125 33.648438 -27.667969 33.96875 -27.667969 C 36.320312 -27.882812 38.351562 -28.414062 40.058594 -29.378906 C 41.769531 -30.339844 43.265625 -31.511719 44.441406 -32.902344 C 45.613281 -34.292969 46.46875 -35.785156 47.109375 -37.496094 C 47.75 -39.097656 48.070312 -40.699219 48.070312 -42.195312 C 48.070312 -43.90625 47.644531 -45.722656 47.003906 -47.539062 C 46.363281 -49.246094 45.292969 -50.847656 44.011719 -52.238281 C 42.730469 -53.519531 41.019531 -54.695312 39.097656 -55.550781 C 37.070312 -56.402344 34.824219 -56.832031 32.261719 -56.832031 L 5.875 -56.832031 C 5.449219 -56.832031 5.339844 -56.617188 5.339844 -56.296875 C 5.339844 -55.976562 5.449219 -55.761719 5.660156 -55.761719 L 7.585938 -55.015625 C 8.546875 -54.589844 9.292969 -53.945312 9.933594 -53.09375 C 10.46875 -52.238281 10.789062 -51.277344 10.789062 -50.207031 L 10.789062 -5.554688 C 10.789062 -3.738281 9.933594 -2.5625 8.332031 -2.03125 L 5.660156 -0.960938 C 5.449219 -0.746094 5.339844 -0.640625 5.339844 -0.425781 C 5.339844 0 5.449219 0.105469 5.875 0.105469 L 21.898438 0.105469 C 22.21875 0.105469 22.433594 0 22.433594 -0.425781 C 22.433594 -0.640625 22.328125 -0.746094 22.113281 -0.960938 L 19.441406 -2.03125 C 17.734375 -2.5625 16.984375 -3.738281 16.984375 -5.554688 L 16.984375 -26.277344 C 16.984375 -27.027344 17.304688 -27.453125 18.160156 -27.453125 L 26.277344 -27.453125 C 26.707031 -27.453125 27.132812 -27.242188 27.347656 -26.921875 L 38.136719 -5.554688 C 39.097656 -3.738281 40.378906 -2.351562 41.984375 -1.390625 C 43.585938 -0.425781 45.292969 0 47.21875 0 L 52.773438 0 C 53.09375 0 53.304688 -0.105469 53.304688 -0.535156 C 53.304688 -0.746094 53.199219 -0.855469 52.984375 -1.066406 Z M 32.476562 -31.191406 L 18.265625 -31.085938 C 17.414062 -31.085938 17.09375 -31.40625 17.09375 -32.261719 L 17.09375 -52.453125 C 17.09375 -53.199219 17.414062 -53.625 18.265625 -53.625 L 32.476562 -53.625 C 35.785156 -53.625 38.242188 -52.453125 39.847656 -50.316406 C 41.339844 -48.070312 42.195312 -45.402344 42.195312 -42.410156 C 42.195312 -38.992188 41.339844 -36.214844 39.847656 -34.183594 C 38.351562 -32.15625 35.894531 -31.191406 32.476562 -31.191406 Z M 32.476562 -31.191406 "/></g></g></g><g fill="#000000" fill-opacity="1"><g transform="translate(567.950756, 374.509742)"><g><path d="M 43.050781 -56.9375 L 5.875 -56.9375 C 5.449219 -56.9375 5.339844 -56.722656 5.339844 -56.402344 L 5.339844 -48.5 C 5.339844 -48.070312 5.449219 -47.964844 5.875 -47.964844 C 6.089844 -47.964844 6.195312 -48.070312 6.410156 -48.285156 L 7.15625 -50.207031 C 7.476562 -51.167969 8.117188 -51.917969 8.972656 -52.558594 C 9.828125 -53.09375 10.894531 -53.414062 11.964844 -53.414062 L 20.191406 -53.414062 C 20.9375 -53.414062 21.363281 -52.984375 21.363281 -52.238281 L 21.363281 -5.660156 C 21.363281 -3.847656 20.511719 -2.671875 18.90625 -2.136719 L 16.238281 -1.066406 C 16.023438 -0.855469 15.917969 -0.746094 15.917969 -0.535156 C 15.917969 -0.105469 16.023438 0 16.453125 0 L 32.476562 0 C 32.796875 0 33.007812 -0.105469 33.007812 -0.535156 C 33.007812 -0.746094 32.902344 -0.855469 32.6875 -1.066406 L 30.019531 -2.136719 C 28.308594 -2.671875 27.5625 -3.847656 27.5625 -5.660156 L 27.5625 -52.238281 C 27.5625 -52.984375 27.882812 -53.414062 28.734375 -53.414062 L 36.960938 -53.414062 C 38.03125 -53.414062 38.992188 -53.09375 39.847656 -52.558594 C 40.699219 -51.917969 41.339844 -51.167969 41.769531 -50.207031 L 42.515625 -48.285156 C 42.515625 -48.070312 42.730469 -47.964844 43.050781 -47.964844 C 43.371094 -47.964844 43.585938 -48.070312 43.585938 -48.5 L 43.585938 -56.402344 C 43.585938 -56.722656 43.371094 -56.9375 43.050781 -56.9375 Z M 43.050781 -56.9375 "/></g></g></g><g fill="#000000" fill-opacity="1"><g transform="translate(616.55143, 374.509742)"><g><path d="M 33.757812 -56.9375 C 29.804688 -56.9375 26.066406 -56.191406 22.648438 -54.695312 C 19.230469 -53.199219 16.128906 -51.0625 13.566406 -48.5 C 11.003906 -45.933594 8.972656 -42.835938 7.476562 -39.417969 C 5.980469 -36 5.234375 -32.261719 5.234375 -28.414062 C 5.234375 -24.464844 5.980469 -20.722656 7.476562 -17.304688 C 8.972656 -13.886719 11.003906 -10.789062 13.566406 -8.226562 C 16.128906 -5.660156 19.230469 -3.632812 22.648438 -2.136719 C 26.066406 -0.640625 29.804688 0.105469 33.757812 0.105469 C 37.601562 0.105469 41.339844 -0.640625 44.761719 -2.136719 C 48.179688 -3.632812 51.277344 -5.660156 53.839844 -8.226562 C 56.402344 -10.789062 58.539062 -13.886719 60.035156 -17.304688 C 61.53125 -20.722656 62.28125 -24.464844 62.28125 -28.414062 C 62.28125 -32.261719 61.53125 -36 60.035156 -39.417969 C 58.539062 -42.835938 56.402344 -45.933594 53.839844 -48.5 C 51.277344 -51.0625 48.179688 -53.199219 44.761719 -54.695312 C 41.339844 -56.191406 37.601562 -56.9375 33.757812 -56.9375 Z M 33.757812 -3.523438 C 30.230469 -3.523438 27.132812 -4.167969 24.355469 -5.660156 C 21.578125 -7.050781 19.230469 -8.972656 17.304688 -11.324219 C 15.382812 -13.671875 13.886719 -16.34375 12.820312 -19.335938 C 11.75 -22.328125 11.324219 -25.316406 11.324219 -28.414062 C 11.324219 -31.40625 11.75 -34.503906 12.710938 -37.496094 C 13.566406 -40.488281 14.957031 -43.15625 16.878906 -45.507812 C 18.800781 -47.859375 21.152344 -49.675781 23.929688 -51.167969 C 26.707031 -52.558594 29.910156 -53.304688 33.648438 -53.304688 C 37.496094 -53.304688 40.808594 -52.558594 43.691406 -51.167969 C 46.46875 -49.675781 48.820312 -47.859375 50.636719 -45.507812 C 52.453125 -43.15625 53.839844 -40.488281 54.695312 -37.496094 C 55.550781 -34.503906 56.082031 -31.40625 56.082031 -28.414062 C 56.082031 -25.316406 55.550781 -22.328125 54.589844 -19.335938 C 53.519531 -16.34375 52.132812 -13.671875 50.207031 -11.324219 C 48.285156 -8.972656 46.042969 -7.050781 43.265625 -5.660156 C 40.488281 -4.167969 37.28125 -3.523438 33.757812 -3.523438 Z M 33.757812 -3.523438 "/></g></g></g><g fill="#000000" fill-opacity="1"><g transform="translate(684.165119, 374.509742)"><g/></g></g><g fill="#000000" fill-opacity="1"><g transform="translate(721.229812, 374.509742)"><g><path d="M 58.753906 -41.019531 L 58.753906 -41.339844 C 57.898438 -41.984375 57.046875 -42.515625 55.976562 -43.15625 C 54.910156 -43.796875 53.734375 -44.332031 52.558594 -44.867188 C 51.277344 -45.292969 50.101562 -45.722656 48.925781 -46.148438 C 47.644531 -46.46875 46.574219 -46.683594 45.507812 -46.898438 C 47.109375 -47.859375 48.5 -49.355469 49.675781 -51.277344 C 50.847656 -53.199219 51.488281 -55.335938 51.488281 -57.6875 C 51.488281 -59.824219 51.0625 -61.851562 50.421875 -63.882812 C 49.78125 -65.910156 48.710938 -67.726562 47.429688 -69.328125 C 46.042969 -70.933594 44.332031 -72.214844 42.410156 -73.175781 C 40.488281 -74.136719 38.136719 -74.671875 35.574219 -74.671875 L 6.089844 -74.671875 C 5.554688 -74.671875 5.339844 -74.351562 5.339844 -73.921875 C 5.339844 -73.496094 5.449219 -73.28125 5.875 -73.175781 L 9.402344 -71.785156 C 10.363281 -71.359375 11.109375 -70.71875 11.75 -69.863281 C 12.285156 -69.007812 12.605469 -68.046875 12.605469 -66.980469 L 12.605469 -7.265625 C 12.605469 -6.195312 12.285156 -5.128906 11.75 -4.273438 C 11.109375 -3.417969 10.363281 -2.777344 9.402344 -2.457031 L 5.875 -1.066406 C 5.449219 -0.855469 5.339844 -0.640625 5.339844 -0.320312 C 5.339844 0.214844 5.554688 0.425781 6.089844 0.425781 L 35.679688 0.425781 C 41.019531 0.425781 45.613281 -0.214844 49.566406 -1.710938 C 53.519531 -3.097656 56.832031 -4.914062 59.394531 -7.265625 C 61.960938 -9.507812 63.773438 -12.070312 65.058594 -14.957031 C 66.339844 -17.839844 66.980469 -20.722656 66.980469 -23.714844 C 66.980469 -26.921875 66.230469 -30.125 64.84375 -33.117188 C 63.347656 -36.105469 61.316406 -38.671875 58.753906 -41.019531 Z M 20.722656 -49.03125 L 20.617188 -68.367188 C 20.617188 -69.328125 21.042969 -69.863281 22.113281 -69.863281 L 35.679688 -69.863281 C 37.175781 -69.863281 38.457031 -69.328125 39.527344 -68.367188 C 40.488281 -67.300781 41.234375 -66.125 41.875 -64.84375 C 42.515625 -63.5625 42.945312 -62.171875 43.15625 -60.785156 C 43.371094 -59.394531 43.585938 -58.328125 43.585938 -57.472656 C 43.585938 -56.191406 43.371094 -54.910156 43.050781 -53.625 C 42.625 -52.238281 42.195312 -51.167969 41.554688 -50.421875 C 40.808594 -49.566406 39.953125 -48.820312 38.992188 -48.285156 C 38.03125 -47.75 36.960938 -47.539062 35.785156 -47.539062 L 22.21875 -47.539062 C 21.152344 -47.539062 20.722656 -47.964844 20.722656 -49.03125 Z M 53.945312 -9.828125 L 53.839844 -9.722656 C 49.566406 -6.089844 43.585938 -4.378906 35.894531 -4.378906 L 22.21875 -4.378906 C 21.152344 -4.378906 20.722656 -4.808594 20.722656 -5.875 L 20.722656 -41.554688 C 20.722656 -42.515625 21.152344 -43.050781 22.21875 -43.050781 L 35.785156 -43.050781 C 39.847656 -43.050781 43.265625 -42.410156 46.253906 -41.128906 C 49.246094 -39.847656 51.703125 -38.351562 53.625 -36.535156 C 55.550781 -34.613281 56.9375 -32.582031 57.898438 -30.339844 C 58.753906 -28.09375 59.289062 -25.957031 59.289062 -24.035156 C 59.289062 -22.96875 59.074219 -21.792969 58.859375 -20.511719 C 58.648438 -19.121094 58.328125 -17.734375 57.898438 -16.453125 C 57.472656 -15.167969 56.832031 -13.886719 56.191406 -12.710938 C 55.550781 -11.429688 54.800781 -10.46875 53.945312 -9.828125 Z M 53.945312 -9.828125 "/></g></g></g><g fill="#000000" fill-opacity="1"><g transform="translate(793.543353, 374.509742)"><g><path d="M 46.148438 -9.722656 L 45.933594 -8.972656 C 45.613281 -8.972656 45.402344 -8.867188 45.402344 -8.652344 L 44.652344 -6.730469 C 44.226562 -5.660156 43.691406 -4.914062 42.835938 -4.378906 C 41.984375 -3.738281 41.019531 -3.523438 40.058594 -3.523438 L 17.945312 -3.523438 C 17.09375 -3.523438 16.773438 -3.847656 16.773438 -4.699219 L 16.773438 -32.902344 C 16.773438 -33.648438 17.09375 -34.078125 17.945312 -34.078125 L 31.40625 -34.078125 C 32.476562 -34.078125 33.4375 -33.757812 34.292969 -33.222656 C 35.144531 -32.582031 35.785156 -31.835938 36.214844 -30.871094 L 36.960938 -28.949219 C 36.960938 -28.734375 37.175781 -28.628906 37.496094 -28.628906 C 37.816406 -28.628906 38.03125 -28.734375 38.03125 -29.164062 L 38.03125 -42.515625 C 38.03125 -42.835938 37.816406 -43.050781 37.496094 -43.050781 C 37.175781 -43.050781 36.960938 -42.945312 36.960938 -42.730469 L 36.214844 -40.808594 C 35.785156 -39.738281 35.144531 -38.992188 34.292969 -38.457031 C 33.4375 -37.816406 32.476562 -37.601562 31.40625 -37.601562 L 17.945312 -37.601562 C 17.09375 -37.601562 16.773438 -37.921875 16.773438 -38.777344 L 16.773438 -52.558594 C 16.773438 -53.304688 17.09375 -53.734375 17.945312 -53.734375 L 36.960938 -53.734375 C 37.921875 -53.625 38.882812 -53.304688 39.738281 -52.773438 C 40.59375 -52.132812 41.128906 -51.382812 41.554688 -50.421875 L 42.304688 -48.5 C 42.304688 -48.285156 42.515625 -48.179688 42.835938 -48.179688 C 43.15625 -48.179688 43.371094 -48.285156 43.371094 -48.710938 L 43.371094 -56.082031 C 43.371094 -56.832031 42.945312 -57.257812 42.195312 -57.257812 L 5.980469 -57.257812 C 5.554688 -57.257812 5.449219 -57.046875 5.449219 -56.722656 C 5.449219 -56.402344 5.554688 -56.191406 5.769531 -56.191406 L 8.332031 -55.230469 C 9.933594 -54.589844 10.789062 -53.414062 10.789062 -51.703125 L 10.789062 -6.195312 C 10.789062 -4.378906 9.933594 -3.203125 8.332031 -2.671875 L 5.769531 -1.710938 C 5.554688 -1.496094 5.449219 -1.390625 5.449219 -1.175781 C 5.449219 -0.746094 5.554688 -0.640625 5.980469 -0.640625 L 45.507812 -0.640625 C 46.253906 -0.640625 46.683594 -0.960938 46.683594 -1.816406 L 46.683594 -9.1875 C 46.683594 -9.507812 46.46875 -9.722656 46.148438 -9.722656 Z M 46.148438 -9.722656 "/></g></g></g><g fill="#000000" fill-opacity="1"><g transform="translate(845.455289, 374.509742)"><g><path d="M 52.984375 -1.066406 L 52.773438 -1.066406 L 50.742188 -1.816406 C 47.324219 -3.097656 44.761719 -5.339844 43.15625 -8.757812 L 33.757812 -27.242188 C 33.542969 -27.453125 33.648438 -27.667969 33.96875 -27.667969 C 36.320312 -27.882812 38.351562 -28.414062 40.058594 -29.378906 C 41.769531 -30.339844 43.265625 -31.511719 44.441406 -32.902344 C 45.613281 -34.292969 46.46875 -35.785156 47.109375 -37.496094 C 47.75 -39.097656 48.070312 -40.699219 48.070312 -42.195312 C 48.070312 -43.90625 47.644531 -45.722656 47.003906 -47.539062 C 46.363281 -49.246094 45.292969 -50.847656 44.011719 -52.238281 C 42.730469 -53.519531 41.019531 -54.695312 39.097656 -55.550781 C 37.070312 -56.402344 34.824219 -56.832031 32.261719 -56.832031 L 5.875 -56.832031 C 5.449219 -56.832031 5.339844 -56.617188 5.339844 -56.296875 C 5.339844 -55.976562 5.449219 -55.761719 5.660156 -55.761719 L 7.585938 -55.015625 C 8.546875 -54.589844 9.292969 -53.945312 9.933594 -53.09375 C 10.46875 -52.238281 10.789062 -51.277344 10.789062 -50.207031 L 10.789062 -5.554688 C 10.789062 -3.738281 9.933594 -2.5625 8.332031 -2.03125 L 5.660156 -0.960938 C 5.449219 -0.746094 5.339844 -0.640625 5.339844 -0.425781 C 5.339844 0 5.449219 0.105469 5.875 0.105469 L 21.898438 0.105469 C 22.21875 0.105469 22.433594 0 22.433594 -0.425781 C 22.433594 -0.640625 22.328125 -0.746094 22.113281 -0.960938 L 19.441406 -2.03125 C 17.734375 -2.5625 16.984375 -3.738281 16.984375 -5.554688 L 16.984375 -26.277344 C 16.984375 -27.027344 17.304688 -27.453125 18.160156 -27.453125 L 26.277344 -27.453125 C 26.707031 -27.453125 27.132812 -27.242188 27.347656 -26.921875 L 38.136719 -5.554688 C 39.097656 -3.738281 40.378906 -2.351562 41.984375 -1.390625 C 43.585938 -0.425781 45.292969 0 47.21875 0 L 52.773438 0 C 53.09375 0 53.304688 -0.105469 53.304688 -0.535156 C 53.304688 -0.746094 53.199219 -0.855469 52.984375 -1.066406 Z M 32.476562 -31.191406 L 18.265625 -31.085938 C 17.414062 -31.085938 17.09375 -31.40625 17.09375 -32.261719 L 17.09375 -52.453125 C 17.09375 -53.199219 17.414062 -53.625 18.265625 -53.625 L 32.476562 -53.625 C 35.785156 -53.625 38.242188 -52.453125 39.847656 -50.316406 C 41.339844 -48.070312 42.195312 -45.402344 42.195312 -42.410156 C 42.195312 -38.992188 41.339844 -36.214844 39.847656 -34.183594 C 38.351562 -32.15625 35.894531 -31.191406 32.476562 -31.191406 Z M 32.476562 -31.191406 "/></g></g></g><g fill="#000000" fill-opacity="1"><g transform="translate(903.882969, 374.509742)"><g><path d="M 56.832031 -0.960938 L 56.832031 -1.066406 L 54.910156 -1.816406 C 53.839844 -2.136719 53.09375 -2.777344 52.558594 -3.632812 C 51.917969 -4.488281 51.703125 -5.554688 51.703125 -6.625 L 51.703125 -50.421875 C 51.703125 -51.488281 51.917969 -52.453125 52.558594 -53.304688 C 53.09375 -54.160156 53.839844 -54.800781 54.910156 -55.230469 L 56.832031 -55.976562 C 57.046875 -55.976562 57.152344 -56.191406 57.152344 -56.511719 C 57.152344 -56.832031 56.9375 -57.046875 56.617188 -57.046875 L 43.265625 -57.046875 C 42.835938 -57.046875 42.730469 -56.832031 42.730469 -56.511719 C 42.730469 -56.191406 42.835938 -55.976562 43.050781 -55.976562 L 44.972656 -55.230469 C 45.933594 -54.800781 46.683594 -54.265625 47.324219 -53.414062 C 47.859375 -52.558594 48.179688 -51.597656 48.179688 -50.527344 L 48.179688 -11.859375 C 48.179688 -11.644531 48.070312 -11.539062 47.964844 -11.539062 C 47.859375 -11.429688 47.75 -11.429688 47.75 -11.644531 L 14.742188 -56.511719 C 14.527344 -56.832031 14.207031 -57.046875 13.886719 -57.046875 L 5.980469 -57.046875 C 5.554688 -57.046875 5.449219 -56.832031 5.449219 -56.511719 C 5.449219 -56.191406 5.554688 -55.976562 5.769531 -55.976562 L 7.691406 -55.230469 C 8.652344 -54.800781 9.402344 -54.160156 10.042969 -53.304688 C 10.574219 -52.453125 10.894531 -51.488281 10.894531 -50.421875 L 10.894531 -6.625 C 10.894531 -5.554688 10.574219 -4.488281 10.042969 -3.632812 C 9.402344 -2.777344 8.652344 -2.136719 7.691406 -1.816406 L 5.769531 -1.066406 C 5.554688 -0.855469 5.449219 -0.746094 5.449219 -0.535156 C 5.449219 -0.105469 5.554688 0 5.980469 0 L 19.335938 0 C 19.65625 0 19.871094 -0.105469 19.871094 -0.535156 C 19.871094 -0.746094 19.761719 -0.855469 19.550781 -1.066406 L 17.625 -1.816406 C 16.558594 -2.136719 15.808594 -2.777344 15.277344 -3.632812 C 14.636719 -4.488281 14.421875 -5.339844 14.421875 -6.410156 L 14.421875 -45.082031 C 14.421875 -45.1875 14.421875 -45.292969 14.527344 -45.402344 C 14.636719 -45.402344 14.742188 -45.402344 14.847656 -45.292969 L 47.859375 -0.425781 C 48.070312 0 48.285156 0.105469 48.710938 0.105469 L 56.617188 0.105469 C 56.9375 0.105469 57.152344 0 57.152344 -0.425781 C 57.152344 -0.640625 57.046875 -0.746094 56.832031 -0.960938 Z M 56.832031 -0.960938 "/></g></g></g><g fill="#000000" fill-opacity="1"><g transform="translate(966.476421, 374.509742)"><g><path d="M 66.019531 -0.960938 L 66.019531 -1.066406 L 64.09375 -1.816406 C 63.027344 -2.136719 61.960938 -2.777344 60.675781 -3.632812 C 59.394531 -4.488281 58.539062 -5.449219 58.113281 -6.515625 L 39.097656 -53.414062 L 37.921875 -56.402344 C 37.710938 -56.722656 37.496094 -56.9375 37.175781 -56.9375 L 29.164062 -56.9375 C 28.734375 -56.9375 28.628906 -56.722656 28.628906 -56.402344 C 28.628906 -56.082031 28.734375 -55.871094 28.949219 -55.871094 L 30.550781 -55.230469 C 31.300781 -54.910156 31.835938 -54.375 32.15625 -53.734375 C 32.367188 -53.09375 32.367188 -52.34375 32.046875 -51.703125 L 13.78125 -6.625 C 13.246094 -5.554688 12.390625 -4.59375 11.109375 -3.738281 C 9.828125 -2.882812 8.652344 -2.242188 7.691406 -1.921875 L 5.769531 -1.175781 C 5.554688 -0.960938 5.449219 -0.855469 5.449219 -0.640625 C 5.449219 -0.214844 5.554688 -0.105469 5.980469 -0.105469 L 19.65625 -0.105469 C 19.976562 -0.105469 20.191406 -0.214844 20.191406 -0.640625 C 20.191406 -0.855469 20.082031 -0.960938 19.871094 -1.175781 C 18.695312 -1.390625 17.839844 -2.03125 17.414062 -2.992188 C 16.878906 -3.953125 16.878906 -4.914062 17.304688 -5.980469 L 21.472656 -16.238281 C 21.6875 -16.878906 22.113281 -17.304688 22.96875 -17.304688 L 46.042969 -17.304688 C 46.789062 -17.304688 47.324219 -16.878906 47.539062 -16.238281 L 51.597656 -6.195312 C 52.023438 -5.128906 52.023438 -4.058594 51.597656 -2.992188 C 51.0625 -1.921875 50.207031 -1.28125 49.140625 -0.960938 C 48.925781 -0.746094 48.820312 -0.640625 48.820312 -0.425781 C 48.820312 0 48.925781 0.105469 49.355469 0.105469 L 65.804688 0.105469 C 66.125 0.105469 66.339844 0 66.339844 -0.425781 C 66.339844 -0.640625 66.230469 -0.746094 66.019531 -0.960938 Z M 45.292969 -20.722656 L 23.609375 -20.722656 C 23.289062 -20.722656 23.179688 -20.832031 23.394531 -21.152344 L 34.183594 -48.070312 C 34.292969 -48.390625 34.503906 -48.390625 34.71875 -48.070312 L 45.507812 -21.152344 C 45.613281 -20.832031 45.507812 -20.722656 45.292969 -20.722656 Z M 45.292969 -20.722656 "/></g></g></g><g fill="#000000" fill-opacity="1"><g transform="translate(1038.255927, 374.509742)"><g><path d="M 52.984375 -1.066406 L 52.773438 -1.066406 L 50.742188 -1.816406 C 47.324219 -3.097656 44.761719 -5.339844 43.15625 -8.757812 L 33.757812 -27.242188 C 33.542969 -27.453125 33.648438 -27.667969 33.96875 -27.667969 C 36.320312 -27.882812 38.351562 -28.414062 40.058594 -29.378906 C 41.769531 -30.339844 43.265625 -31.511719 44.441406 -32.902344 C 45.613281 -34.292969 46.46875 -35.785156 47.109375 -37.496094 C 47.75 -39.097656 48.070312 -40.699219 48.070312 -42.195312 C 48.070312 -43.90625 47.644531 -45.722656 47.003906 -47.539062 C 46.363281 -49.246094 45.292969 -50.847656 44.011719 -52.238281 C 42.730469 -53.519531 41.019531 -54.695312 39.097656 -55.550781 C 37.070312 -56.402344 34.824219 -56.832031 32.261719 -56.832031 L 5.875 -56.832031 C 5.449219 -56.832031 5.339844 -56.617188 5.339844 -56.296875 C 5.339844 -55.976562 5.449219 -55.761719 5.660156 -55.761719 L 7.585938 -55.015625 C 8.546875 -54.589844 9.292969 -53.945312 9.933594 -53.09375 C 10.46875 -52.238281 10.789062 -51.277344 10.789062 -50.207031 L 10.789062 -5.554688 C 10.789062 -3.738281 9.933594 -2.5625 8.332031 -2.03125 L 5.660156 -0.960938 C 5.449219 -0.746094 5.339844 -0.640625 5.339844 -0.425781 C 5.339844 0 5.449219 0.105469 5.875 0.105469 L 21.898438 0.105469 C 22.21875 0.105469 22.433594 0 22.433594 -0.425781 C 22.433594 -0.640625 22.328125 -0.746094 22.113281 -0.960938 L 19.441406 -2.03125 C 17.734375 -2.5625 16.984375 -3.738281 16.984375 -5.554688 L 16.984375 -26.277344 C 16.984375 -27.027344 17.304688 -27.453125 18.160156 -27.453125 L 26.277344 -27.453125 C 26.707031 -27.453125 27.132812 -27.242188 27.347656 -26.921875 L 38.136719 -5.554688 C 39.097656 -3.738281 40.378906 -2.351562 41.984375 -1.390625 C 43.585938 -0.425781 45.292969 0 47.21875 0 L 52.773438 0 C 53.09375 0 53.304688 -0.105469 53.304688 -0.535156 C 53.304688 -0.746094 53.199219 -0.855469 52.984375 -1.066406 Z M 32.476562 -31.191406 L 18.265625 -31.085938 C 17.414062 -31.085938 17.09375 -31.40625 17.09375 -32.261719 L 17.09375 -52.453125 C 17.09375 -53.199219 17.414062 -53.625 18.265625 -53.625 L 32.476562 -53.625 C 35.785156 -53.625 38.242188 -52.453125 39.847656 -50.316406 C 41.339844 -48.070312 42.195312 -45.402344 42.195312 -42.410156 C 42.195312 -38.992188 41.339844 -36.214844 39.847656 -34.183594 C 38.351562 -32.15625 35.894531 -31.191406 32.476562 -31.191406 Z M 32.476562 -31.191406 "/></g></g></g><g fill="#000000" fill-opacity="1"><g transform="translate(1096.683607, 374.509742)"><g><path d="M 49.246094 -47.964844 L 49.140625 -47.75 C 46.789062 -50.742188 44.117188 -52.984375 41.019531 -54.589844 C 37.921875 -56.082031 34.503906 -56.9375 30.660156 -56.9375 L 5.980469 -56.9375 C 5.554688 -56.9375 5.449219 -56.722656 5.449219 -56.402344 C 5.449219 -56.082031 5.554688 -55.871094 5.769531 -55.871094 L 8.4375 -54.800781 C 10.042969 -54.160156 10.894531 -52.984375 10.894531 -51.277344 L 10.894531 -5.875 C 10.894531 -4.058594 10.042969 -2.882812 8.4375 -2.351562 L 5.769531 -1.28125 C 5.554688 -1.066406 5.449219 -0.960938 5.449219 -0.746094 C 5.449219 -0.320312 5.554688 -0.214844 5.980469 -0.214844 L 30.765625 -0.214844 C 34.71875 -0.214844 38.242188 -0.960938 41.339844 -2.671875 C 44.332031 -4.273438 46.898438 -6.410156 49.03125 -9.082031 C 51.0625 -11.75 52.558594 -14.742188 53.625 -18.160156 C 54.695312 -21.578125 55.230469 -24.996094 55.230469 -28.628906 C 55.230469 -32.261719 54.695312 -35.785156 53.625 -39.097656 C 52.558594 -42.410156 51.167969 -45.402344 49.246094 -47.964844 Z M 30.660156 -3.847656 L 30.765625 -3.738281 L 18.160156 -3.738281 C 17.304688 -3.738281 16.984375 -4.058594 16.984375 -4.914062 L 16.984375 -52.023438 C 16.984375 -53.09375 17.519531 -53.734375 18.695312 -53.734375 L 30.660156 -53.734375 C 36.320312 -53.734375 40.914062 -51.488281 44.332031 -47.003906 C 44.972656 -45.933594 45.613281 -44.761719 46.253906 -43.265625 C 46.898438 -41.769531 47.324219 -40.167969 47.75 -38.5625 C 48.179688 -36.855469 48.5 -35.253906 48.710938 -33.542969 C 48.925781 -31.835938 49.03125 -30.230469 49.03125 -28.734375 C 49.03125 -25.316406 48.605469 -22.21875 47.859375 -19.230469 C 47.109375 -16.238281 46.042969 -13.566406 44.546875 -11.324219 C 43.050781 -8.972656 41.128906 -7.15625 38.777344 -5.875 C 36.425781 -4.488281 33.757812 -3.847656 30.660156 -3.847656 Z M 30.660156 -3.847656 "/></g></g></g><g fill="#000000" fill-opacity="1"><g transform="translate(1157.140737, 374.509742)"><g><path d="M 33.757812 -56.9375 C 29.804688 -56.9375 26.066406 -56.191406 22.648438 -54.695312 C 19.230469 -53.199219 16.128906 -51.0625 13.566406 -48.5 C 11.003906 -45.933594 8.972656 -42.835938 7.476562 -39.417969 C 5.980469 -36 5.234375 -32.261719 5.234375 -28.414062 C 5.234375 -24.464844 5.980469 -20.722656 7.476562 -17.304688 C 8.972656 -13.886719 11.003906 -10.789062 13.566406 -8.226562 C 16.128906 -5.660156 19.230469 -3.632812 22.648438 -2.136719 C 26.066406 -0.640625 29.804688 0.105469 33.757812 0.105469 C 37.601562 0.105469 41.339844 -0.640625 44.761719 -2.136719 C 48.179688 -3.632812 51.277344 -5.660156 53.839844 -8.226562 C 56.402344 -10.789062 58.539062 -13.886719 60.035156 -17.304688 C 61.53125 -20.722656 62.28125 -24.464844 62.28125 -28.414062 C 62.28125 -32.261719 61.53125 -36 60.035156 -39.417969 C 58.539062 -42.835938 56.402344 -45.933594 53.839844 -48.5 C 51.277344 -51.0625 48.179688 -53.199219 44.761719 -54.695312 C 41.339844 -56.191406 37.601562 -56.9375 33.757812 -56.9375 Z M 33.757812 -3.523438 C 30.230469 -3.523438 27.132812 -4.167969 24.355469 -5.660156 C 21.578125 -7.050781 19.230469 -8.972656 17.304688 -11.324219 C 15.382812 -13.671875 13.886719 -16.34375 12.820312 -19.335938 C 11.75 -22.328125 11.324219 -25.316406 11.324219 -28.414062 C 11.324219 -31.40625 11.75 -34.503906 12.710938 -37.496094 C 13.566406 -40.488281 14.957031 -43.15625 16.878906 -45.507812 C 18.800781 -47.859375 21.152344 -49.675781 23.929688 -51.167969 C 26.707031 -52.558594 29.910156 -53.304688 33.648438 -53.304688 C 37.496094 -53.304688 40.808594 -52.558594 43.691406 -51.167969 C 46.46875 -49.675781 48.820312 -47.859375 50.636719 -45.507812 C 52.453125 -43.15625 53.839844 -40.488281 54.695312 -37.496094 C 55.550781 -34.503906 56.082031 -31.40625 56.082031 -28.414062 C 56.082031 -25.316406 55.550781 -22.328125 54.589844 -19.335938 C 53.519531 -16.34375 52.132812 -13.671875 50.207031 -11.324219 C 48.285156 -8.972656 46.042969 -7.050781 43.265625 -5.660156 C 40.488281 -4.167969 37.28125 -3.523438 33.757812 -3.523438 Z M 33.757812 -3.523438 "/></g></g></g><g fill="#000000" fill-opacity="1"><g transform="translate(230.894431, 447.383099)"><g><path d="M 36.796875 -7.425781 C 36.527344 -7.425781 36.394531 -7.292969 36.328125 -7.089844 L 35.726562 -5.554688 C 35.390625 -4.75 34.855469 -4.082031 34.1875 -3.613281 C 33.515625 -3.078125 32.714844 -2.875 31.910156 -2.875 L 13.714844 -2.875 C 13.046875 -2.875 12.777344 -3.144531 12.777344 -3.8125 L 12.777344 -27.027344 C 12.777344 -27.628906 13.046875 -27.964844 13.714844 -27.964844 L 24.820312 -27.964844 C 25.691406 -27.964844 26.492188 -27.695312 27.160156 -27.230469 C 27.832031 -26.695312 28.367188 -26.089844 28.699219 -25.289062 L 29.300781 -23.75 C 29.371094 -23.480469 29.503906 -23.414062 29.769531 -23.414062 C 30.039062 -23.414062 30.238281 -23.550781 30.238281 -23.882812 L 30.238281 -34.921875 C 30.238281 -35.191406 30.039062 -35.390625 29.769531 -35.390625 C 29.503906 -35.390625 29.371094 -35.257812 29.300781 -35.054688 L 28.699219 -33.515625 C 28.367188 -32.714844 27.832031 -32.046875 27.160156 -31.578125 C 26.492188 -31.042969 25.691406 -30.839844 24.820312 -30.839844 L 13.714844 -30.839844 C 13.046875 -30.839844 12.777344 -31.109375 12.777344 -31.777344 L 12.777344 -43.085938 C 12.777344 -43.6875 13.046875 -44.019531 13.714844 -44.019531 L 29.300781 -44.019531 C 30.105469 -43.953125 30.910156 -43.6875 31.578125 -43.21875 C 32.246094 -42.75 32.714844 -42.148438 33.050781 -41.410156 L 33.652344 -39.871094 C 33.71875 -39.605469 33.851562 -39.539062 34.121094 -39.539062 C 34.386719 -39.539062 34.585938 -39.671875 34.585938 -40.007812 L 34.585938 -46.027344 C 34.585938 -46.628906 34.253906 -46.964844 33.652344 -46.964844 L 3.8125 -46.964844 C 3.480469 -46.964844 3.34375 -46.765625 3.34375 -46.496094 C 3.34375 -46.230469 3.410156 -46.09375 3.679688 -46.027344 L 5.753906 -45.226562 C 6.355469 -44.957031 6.824219 -44.554688 7.226562 -44.019531 C 7.558594 -43.484375 7.761719 -42.882812 7.761719 -42.214844 L 7.761719 -4.75 C 7.761719 -4.082031 7.558594 -3.410156 7.226562 -2.875 C 6.824219 -2.339844 6.355469 -1.941406 5.753906 -1.738281 L 3.679688 -0.9375 C 3.410156 -0.804688 3.34375 -0.667969 3.34375 -0.46875 C 3.34375 -0.132812 3.480469 0 3.8125 0 L 36.328125 0 C 36.929688 0 37.265625 -0.269531 37.265625 -0.9375 L 37.265625 -6.957031 C 37.265625 -7.226562 37.0625 -7.425781 36.796875 -7.425781 Z M 36.796875 -7.425781 "/></g></g></g><g fill="#000000" fill-opacity="1"><g transform="translate(271.435527, 447.383099)"><g><path d="M 35.859375 -0.667969 L 34.65625 -1.136719 C 34.320312 -1.269531 33.917969 -1.40625 33.515625 -1.605469 C 33.117188 -1.804688 32.648438 -2.074219 32.246094 -2.339844 C 31.777344 -2.609375 31.375 -2.875 30.976562 -3.210938 C 30.574219 -3.480469 30.304688 -3.8125 30.171875 -4.148438 L 21.675781 -18.265625 C 21.542969 -18.464844 21.542969 -18.664062 21.675781 -18.933594 L 29.234375 -31.578125 C 29.371094 -31.84375 29.636719 -32.113281 30.039062 -32.378906 C 30.441406 -32.648438 30.839844 -32.980469 31.242188 -33.25 C 31.644531 -33.515625 32.113281 -33.71875 32.582031 -33.984375 C 32.980469 -34.1875 33.382812 -34.386719 33.71875 -34.519531 L 34.921875 -34.988281 C 35.054688 -34.988281 35.121094 -35.121094 35.121094 -35.324219 C 35.121094 -35.523438 34.988281 -35.660156 34.789062 -35.660156 L 26.023438 -35.660156 C 25.757812 -35.660156 25.691406 -35.523438 25.691406 -35.324219 C 25.691406 -35.121094 25.757812 -34.988281 25.890625 -34.988281 L 27.09375 -34.519531 C 27.363281 -34.386719 27.496094 -34.1875 27.628906 -33.917969 C 27.695312 -33.652344 27.628906 -33.382812 27.496094 -33.117188 L 20.269531 -21.074219 C 20.136719 -20.875 20.070312 -20.875 20.003906 -21.074219 L 13.445312 -32.046875 C 13.113281 -32.582031 13.046875 -33.117188 13.246094 -33.71875 C 13.445312 -34.320312 13.847656 -34.789062 14.449219 -35.054688 C 14.585938 -35.054688 14.652344 -35.191406 14.652344 -35.390625 C 14.652344 -35.589844 14.515625 -35.726562 14.316406 -35.726562 L 3.679688 -35.726562 C 3.410156 -35.726562 3.34375 -35.589844 3.34375 -35.390625 C 3.34375 -35.191406 3.410156 -35.054688 3.546875 -35.054688 L 4.75 -34.585938 C 5.015625 -34.453125 5.417969 -34.253906 5.820312 -34.050781 C 6.222656 -33.851562 6.691406 -33.652344 7.160156 -33.382812 C 7.558594 -33.117188 7.960938 -32.78125 8.363281 -32.515625 C 8.765625 -32.179688 9.03125 -31.84375 9.230469 -31.578125 L 17.730469 -17.460938 C 17.863281 -17.195312 17.863281 -16.992188 17.730469 -16.792969 L 10.167969 -4.148438 C 9.96875 -3.878906 9.699219 -3.546875 9.300781 -3.277344 C 8.898438 -3.011719 8.496094 -2.742188 8.09375 -2.476562 C 7.695312 -2.207031 7.226562 -1.941406 6.824219 -1.738281 C 6.355469 -1.472656 5.953125 -1.339844 5.6875 -1.203125 L 4.480469 -0.734375 C 4.347656 -0.601562 4.28125 -0.535156 4.28125 -0.402344 C 4.28125 -0.132812 4.347656 -0.0664062 4.617188 -0.0664062 L 13.378906 -0.0664062 C 13.582031 -0.0664062 13.714844 -0.132812 13.714844 -0.402344 C 13.714844 -0.535156 13.648438 -0.601562 13.515625 -0.734375 L 12.308594 -1.203125 C 12.042969 -1.269531 11.839844 -1.472656 11.773438 -1.738281 C 11.640625 -2.007812 11.707031 -2.339844 11.910156 -2.609375 L 19.132812 -14.652344 C 19.199219 -14.785156 19.265625 -14.785156 19.402344 -14.652344 L 25.957031 -3.679688 C 26.226562 -3.144531 26.292969 -2.542969 26.089844 -1.941406 C 25.890625 -1.339844 25.488281 -0.9375 24.953125 -0.667969 C 24.820312 -0.535156 24.753906 -0.46875 24.753906 -0.335938 C 24.753906 -0.0664062 24.820312 0 25.085938 0 L 35.726562 0 C 35.925781 0 36.058594 -0.0664062 36.058594 -0.335938 C 36.058594 -0.46875 35.992188 -0.535156 35.859375 -0.667969 Z M 35.859375 -0.667969 "/></g></g></g><g fill="#000000" fill-opacity="1"><g transform="translate(310.839335, 447.383099)"><g><path d="M 31.84375 -35.660156 L 31.980469 -35.457031 C 31.777344 -35.457031 31.644531 -35.390625 31.644531 -35.257812 L 31.242188 -34.253906 C 31.042969 -33.785156 30.707031 -33.515625 30.304688 -33.382812 C 29.835938 -33.25 29.4375 -33.316406 29.035156 -33.585938 C 28.097656 -34.121094 26.894531 -34.65625 25.488281 -35.054688 C 24.085938 -35.457031 22.34375 -35.726562 20.339844 -35.726562 C 14.984375 -35.726562 10.703125 -33.851562 7.492188 -30.105469 C 6.089844 -28.5 5.015625 -26.625 4.28125 -24.550781 C 3.546875 -22.410156 3.210938 -20.203125 3.210938 -17.929688 C 3.210938 -15.65625 3.546875 -13.515625 4.28125 -11.375 C 5.015625 -9.230469 6.089844 -7.359375 7.558594 -5.6875 C 8.964844 -4.015625 10.769531 -2.675781 12.910156 -1.671875 C 15.050781 -0.601562 17.527344 -0.132812 20.339844 -0.132812 C 21.945312 -0.132812 23.347656 -0.269531 24.550781 -0.535156 C 25.757812 -0.804688 26.828125 -1.203125 27.765625 -1.671875 C 28.699219 -2.074219 29.4375 -2.542969 30.039062 -3.078125 C 30.640625 -3.546875 31.109375 -3.945312 31.511719 -4.347656 C 31.710938 -4.550781 31.777344 -4.816406 31.777344 -5.152344 C 31.710938 -5.417969 31.578125 -5.6875 31.375 -5.953125 L 31.308594 -5.953125 C 30.839844 -6.289062 30.371094 -6.289062 29.90625 -5.886719 C 29.570312 -5.554688 29.167969 -5.21875 28.632812 -4.816406 C 28.097656 -4.414062 27.429688 -4.015625 26.625 -3.613281 C 25.824219 -3.210938 24.886719 -2.945312 23.816406 -2.675781 C 22.746094 -2.410156 21.609375 -2.339844 20.269531 -2.339844 C 17.996094 -2.339844 15.988281 -2.808594 14.316406 -3.8125 C 12.644531 -4.816406 11.304688 -6.089844 10.234375 -7.625 C 9.164062 -9.164062 8.363281 -10.839844 7.828125 -12.710938 C 7.292969 -14.515625 7.023438 -16.257812 7.023438 -17.996094 C 7.023438 -19.871094 7.292969 -21.609375 7.894531 -23.28125 C 8.429688 -24.953125 9.300781 -26.425781 10.371094 -27.765625 C 10.90625 -28.433594 11.574219 -29.167969 12.308594 -29.835938 C 13.046875 -30.507812 13.847656 -31.175781 14.652344 -31.710938 C 15.453125 -32.246094 16.390625 -32.714844 17.328125 -33.117188 C 18.265625 -33.449219 19.199219 -33.652344 20.269531 -33.652344 C 21.476562 -33.652344 22.546875 -33.449219 23.550781 -33.183594 C 24.484375 -32.847656 25.355469 -32.445312 26.160156 -31.980469 C 27.296875 -31.242188 28.300781 -30.371094 29.167969 -29.300781 C 30.039062 -28.230469 30.707031 -27.09375 31.242188 -25.824219 L 31.511719 -25.15625 C 31.511719 -25.019531 31.644531 -24.953125 31.84375 -24.953125 C 32.046875 -24.953125 32.179688 -25.019531 32.179688 -25.289062 L 32.179688 -35.324219 C 32.179688 -35.523438 32.046875 -35.660156 31.84375 -35.660156 Z M 31.84375 -35.660156 "/></g></g></g><g fill="#000000" fill-opacity="1"><g transform="translate(346.496766, 447.383099)"><g><path d="M 28.902344 -6.089844 L 28.765625 -5.621094 C 28.566406 -5.621094 28.433594 -5.554688 28.433594 -5.417969 L 27.964844 -4.214844 C 27.695312 -3.546875 27.363281 -3.078125 26.828125 -2.742188 C 26.292969 -2.339844 25.691406 -2.207031 25.085938 -2.207031 L 11.238281 -2.207031 C 10.703125 -2.207031 10.503906 -2.410156 10.503906 -2.945312 L 10.503906 -20.605469 C 10.503906 -21.074219 10.703125 -21.339844 11.238281 -21.339844 L 19.667969 -21.339844 C 20.339844 -21.339844 20.941406 -21.140625 21.476562 -20.804688 C 22.011719 -20.40625 22.410156 -19.9375 22.679688 -19.335938 L 23.148438 -18.128906 C 23.148438 -17.996094 23.28125 -17.929688 23.480469 -17.929688 C 23.683594 -17.929688 23.816406 -17.996094 23.816406 -18.265625 L 23.816406 -26.625 C 23.816406 -26.828125 23.683594 -26.960938 23.480469 -26.960938 C 23.28125 -26.960938 23.148438 -26.894531 23.148438 -26.761719 L 22.679688 -25.554688 C 22.410156 -24.886719 22.011719 -24.417969 21.476562 -24.085938 C 20.941406 -23.683594 20.339844 -23.550781 19.667969 -23.550781 L 11.238281 -23.550781 C 10.703125 -23.550781 10.503906 -23.75 10.503906 -24.285156 L 10.503906 -32.914062 C 10.503906 -33.382812 10.703125 -33.652344 11.238281 -33.652344 L 23.148438 -33.652344 C 23.75 -33.585938 24.351562 -33.382812 24.886719 -33.050781 C 25.421875 -32.648438 25.757812 -32.179688 26.023438 -31.578125 L 26.492188 -30.371094 C 26.492188 -30.238281 26.625 -30.171875 26.828125 -30.171875 C 27.027344 -30.171875 27.160156 -30.238281 27.160156 -30.507812 L 27.160156 -35.121094 C 27.160156 -35.589844 26.894531 -35.859375 26.425781 -35.859375 L 3.746094 -35.859375 C 3.480469 -35.859375 3.410156 -35.726562 3.410156 -35.523438 C 3.410156 -35.324219 3.480469 -35.191406 3.613281 -35.191406 L 5.21875 -34.585938 C 6.222656 -34.1875 6.757812 -33.449219 6.757812 -32.378906 L 6.757812 -3.878906 C 6.757812 -2.742188 6.222656 -2.007812 5.21875 -1.671875 L 3.613281 -1.070312 C 3.480469 -0.9375 3.410156 -0.871094 3.410156 -0.734375 C 3.410156 -0.46875 3.480469 -0.402344 3.746094 -0.402344 L 28.5 -0.402344 C 28.96875 -0.402344 29.234375 -0.601562 29.234375 -1.136719 L 29.234375 -5.753906 C 29.234375 -5.953125 29.101562 -6.089844 28.902344 -6.089844 Z M 28.902344 -6.089844 "/></g></g></g><g fill="#000000" fill-opacity="1"><g transform="translate(379.009925, 447.383099)"><g><path d="M 28.632812 -5.6875 L 28.765625 -5.621094 C 28.566406 -5.621094 28.433594 -5.554688 28.433594 -5.417969 L 27.964844 -4.214844 C 27.695312 -3.546875 27.363281 -3.078125 26.828125 -2.742188 C 26.292969 -2.339844 25.691406 -2.140625 25.085938 -2.140625 L 11.238281 -2.140625 C 10.703125 -2.140625 10.503906 -2.339844 10.503906 -2.875 L 10.503906 -32.046875 C 10.503906 -33.117188 10.972656 -33.851562 12.042969 -34.253906 L 13.714844 -34.921875 C 13.847656 -34.921875 13.914062 -35.054688 13.914062 -35.257812 C 13.914062 -35.457031 13.78125 -35.589844 13.582031 -35.589844 L 3.546875 -35.589844 C 3.277344 -35.589844 3.210938 -35.457031 3.210938 -35.257812 C 3.210938 -35.054688 3.277344 -34.921875 3.410156 -34.921875 L 5.085938 -34.253906 C 6.089844 -33.851562 6.625 -33.117188 6.625 -32.046875 L 6.625 -3.613281 C 6.625 -2.476562 6.089844 -1.738281 5.085938 -1.40625 L 3.410156 -0.734375 C 3.277344 -0.601562 3.210938 -0.535156 3.210938 -0.402344 C 3.210938 -0.132812 3.277344 -0.0664062 3.546875 -0.0664062 L 28.632812 -0.0664062 C 28.835938 -0.0664062 28.96875 -0.132812 28.96875 -0.402344 L 28.96875 -5.351562 C 28.96875 -5.554688 28.835938 -5.6875 28.632812 -5.6875 Z M 28.632812 -5.6875 "/></g></g></g><g fill="#000000" fill-opacity="1"><g transform="translate(411.523085, 447.383099)"><g><path d="M 28.902344 -6.089844 L 28.765625 -5.621094 C 28.566406 -5.621094 28.433594 -5.554688 28.433594 -5.417969 L 27.964844 -4.214844 C 27.695312 -3.546875 27.363281 -3.078125 26.828125 -2.742188 C 26.292969 -2.339844 25.691406 -2.207031 25.085938 -2.207031 L 11.238281 -2.207031 C 10.703125 -2.207031 10.503906 -2.410156 10.503906 -2.945312 L 10.503906 -20.605469 C 10.503906 -21.074219 10.703125 -21.339844 11.238281 -21.339844 L 19.667969 -21.339844 C 20.339844 -21.339844 20.941406 -21.140625 21.476562 -20.804688 C 22.011719 -20.40625 22.410156 -19.9375 22.679688 -19.335938 L 23.148438 -18.128906 C 23.148438 -17.996094 23.28125 -17.929688 23.480469 -17.929688 C 23.683594 -17.929688 23.816406 -17.996094 23.816406 -18.265625 L 23.816406 -26.625 C 23.816406 -26.828125 23.683594 -26.960938 23.480469 -26.960938 C 23.28125 -26.960938 23.148438 -26.894531 23.148438 -26.761719 L 22.679688 -25.554688 C 22.410156 -24.886719 22.011719 -24.417969 21.476562 -24.085938 C 20.941406 -23.683594 20.339844 -23.550781 19.667969 -23.550781 L 11.238281 -23.550781 C 10.703125 -23.550781 10.503906 -23.75 10.503906 -24.285156 L 10.503906 -32.914062 C 10.503906 -33.382812 10.703125 -33.652344 11.238281 -33.652344 L 23.148438 -33.652344 C 23.75 -33.585938 24.351562 -33.382812 24.886719 -33.050781 C 25.421875 -32.648438 25.757812 -32.179688 26.023438 -31.578125 L 26.492188 -30.371094 C 26.492188 -30.238281 26.625 -30.171875 26.828125 -30.171875 C 27.027344 -30.171875 27.160156 -30.238281 27.160156 -30.507812 L 27.160156 -35.121094 C 27.160156 -35.589844 26.894531 -35.859375 26.425781 -35.859375 L 3.746094 -35.859375 C 3.480469 -35.859375 3.410156 -35.726562 3.410156 -35.523438 C 3.410156 -35.324219 3.480469 -35.191406 3.613281 -35.191406 L 5.21875 -34.585938 C 6.222656 -34.1875 6.757812 -33.449219 6.757812 -32.378906 L 6.757812 -3.878906 C 6.757812 -2.742188 6.222656 -2.007812 5.21875 -1.671875 L 3.613281 -1.070312 C 3.480469 -0.9375 3.410156 -0.871094 3.410156 -0.734375 C 3.410156 -0.46875 3.480469 -0.402344 3.746094 -0.402344 L 28.5 -0.402344 C 28.96875 -0.402344 29.234375 -0.601562 29.234375 -1.136719 L 29.234375 -5.753906 C 29.234375 -5.953125 29.101562 -6.089844 28.902344 -6.089844 Z M 28.902344 -6.089844 "/></g></g></g><g fill="#000000" fill-opacity="1"><g transform="translate(444.036245, 447.383099)"><g><path d="M 35.589844 -0.601562 L 35.589844 -0.667969 L 34.386719 -1.136719 C 33.71875 -1.339844 33.25 -1.738281 32.914062 -2.273438 C 32.515625 -2.808594 32.378906 -3.480469 32.378906 -4.148438 L 32.378906 -31.578125 C 32.378906 -32.246094 32.515625 -32.847656 32.914062 -33.382812 C 33.25 -33.917969 33.71875 -34.320312 34.386719 -34.585938 L 35.589844 -35.054688 C 35.726562 -35.054688 35.792969 -35.191406 35.792969 -35.390625 C 35.792969 -35.589844 35.660156 -35.726562 35.457031 -35.726562 L 27.09375 -35.726562 C 26.828125 -35.726562 26.761719 -35.589844 26.761719 -35.390625 C 26.761719 -35.191406 26.828125 -35.054688 26.960938 -35.054688 L 28.164062 -34.585938 C 28.765625 -34.320312 29.234375 -33.984375 29.636719 -33.449219 C 29.972656 -32.914062 30.171875 -32.3125 30.171875 -31.644531 L 30.171875 -7.425781 C 30.171875 -7.292969 30.105469 -7.226562 30.039062 -7.226562 C 29.972656 -7.160156 29.90625 -7.160156 29.90625 -7.292969 L 9.230469 -35.390625 C 9.097656 -35.589844 8.898438 -35.726562 8.695312 -35.726562 L 3.746094 -35.726562 C 3.480469 -35.726562 3.410156 -35.589844 3.410156 -35.390625 C 3.410156 -35.191406 3.480469 -35.054688 3.613281 -35.054688 L 4.816406 -34.585938 C 5.417969 -34.320312 5.886719 -33.917969 6.289062 -33.382812 C 6.625 -32.847656 6.824219 -32.246094 6.824219 -31.578125 L 6.824219 -4.148438 C 6.824219 -3.480469 6.625 -2.808594 6.289062 -2.273438 C 5.886719 -1.738281 5.417969 -1.339844 4.816406 -1.136719 L 3.613281 -0.667969 C 3.480469 -0.535156 3.410156 -0.46875 3.410156 -0.335938 C 3.410156 -0.0664062 3.480469 0 3.746094 0 L 12.109375 0 C 12.308594 0 12.445312 -0.0664062 12.445312 -0.335938 C 12.445312 -0.46875 12.375 -0.535156 12.242188 -0.667969 L 11.039062 -1.136719 C 10.371094 -1.339844 9.902344 -1.738281 9.566406 -2.273438 C 9.164062 -2.808594 9.03125 -3.34375 9.03125 -4.015625 L 9.03125 -28.230469 C 9.03125 -28.300781 9.03125 -28.367188 9.097656 -28.433594 C 9.164062 -28.433594 9.230469 -28.433594 9.300781 -28.367188 L 29.972656 -0.269531 C 30.105469 0 30.238281 0.0664062 30.507812 0.0664062 L 35.457031 0.0664062 C 35.660156 0.0664062 35.792969 0 35.792969 -0.269531 C 35.792969 -0.402344 35.726562 -0.46875 35.589844 -0.601562 Z M 35.589844 -0.601562 "/></g></g></g><g fill="#000000" fill-opacity="1"><g transform="translate(483.239363, 447.383099)"><g><path d="M 31.84375 -35.660156 L 31.980469 -35.457031 C 31.777344 -35.457031 31.644531 -35.390625 31.644531 -35.257812 L 31.242188 -34.253906 C 31.042969 -33.785156 30.707031 -33.515625 30.304688 -33.382812 C 29.835938 -33.25 29.4375 -33.316406 29.035156 -33.585938 C 28.097656 -34.121094 26.894531 -34.65625 25.488281 -35.054688 C 24.085938 -35.457031 22.34375 -35.726562 20.339844 -35.726562 C 14.984375 -35.726562 10.703125 -33.851562 7.492188 -30.105469 C 6.089844 -28.5 5.015625 -26.625 4.28125 -24.550781 C 3.546875 -22.410156 3.210938 -20.203125 3.210938 -17.929688 C 3.210938 -15.65625 3.546875 -13.515625 4.28125 -11.375 C 5.015625 -9.230469 6.089844 -7.359375 7.558594 -5.6875 C 8.964844 -4.015625 10.769531 -2.675781 12.910156 -1.671875 C 15.050781 -0.601562 17.527344 -0.132812 20.339844 -0.132812 C 21.945312 -0.132812 23.347656 -0.269531 24.550781 -0.535156 C 25.757812 -0.804688 26.828125 -1.203125 27.765625 -1.671875 C 28.699219 -2.074219 29.4375 -2.542969 30.039062 -3.078125 C 30.640625 -3.546875 31.109375 -3.945312 31.511719 -4.347656 C 31.710938 -4.550781 31.777344 -4.816406 31.777344 -5.152344 C 31.710938 -5.417969 31.578125 -5.6875 31.375 -5.953125 L 31.308594 -5.953125 C 30.839844 -6.289062 30.371094 -6.289062 29.90625 -5.886719 C 29.570312 -5.554688 29.167969 -5.21875 28.632812 -4.816406 C 28.097656 -4.414062 27.429688 -4.015625 26.625 -3.613281 C 25.824219 -3.210938 24.886719 -2.945312 23.816406 -2.675781 C 22.746094 -2.410156 21.609375 -2.339844 20.269531 -2.339844 C 17.996094 -2.339844 15.988281 -2.808594 14.316406 -3.8125 C 12.644531 -4.816406 11.304688 -6.089844 10.234375 -7.625 C 9.164062 -9.164062 8.363281 -10.839844 7.828125 -12.710938 C 7.292969 -14.515625 7.023438 -16.257812 7.023438 -17.996094 C 7.023438 -19.871094 7.292969 -21.609375 7.894531 -23.28125 C 8.429688 -24.953125 9.300781 -26.425781 10.371094 -27.765625 C 10.90625 -28.433594 11.574219 -29.167969 12.308594 -29.835938 C 13.046875 -30.507812 13.847656 -31.175781 14.652344 -31.710938 C 15.453125 -32.246094 16.390625 -32.714844 17.328125 -33.117188 C 18.265625 -33.449219 19.199219 -33.652344 20.269531 -33.652344 C 21.476562 -33.652344 22.546875 -33.449219 23.550781 -33.183594 C 24.484375 -32.847656 25.355469 -32.445312 26.160156 -31.980469 C 27.296875 -31.242188 28.300781 -30.371094 29.167969 -29.300781 C 30.039062 -28.230469 30.707031 -27.09375 31.242188 -25.824219 L 31.511719 -25.15625 C 31.511719 -25.019531 31.644531 -24.953125 31.84375 -24.953125 C 32.046875 -24.953125 32.179688 -25.019531 32.179688 -25.289062 L 32.179688 -35.324219 C 32.179688 -35.523438 32.046875 -35.660156 31.84375 -35.660156 Z M 31.84375 -35.660156 "/></g></g></g><g fill="#000000" fill-opacity="1"><g transform="translate(518.896793, 447.383099)"><g><path d="M 13.847656 -0.667969 L 12.175781 -1.339844 C 11.105469 -1.671875 10.636719 -2.410156 10.636719 -3.546875 L 10.636719 -31.980469 C 10.636719 -33.050781 11.105469 -33.785156 12.175781 -34.1875 L 13.847656 -34.855469 C 13.980469 -34.855469 14.050781 -34.988281 14.050781 -35.191406 C 14.050781 -35.390625 13.914062 -35.523438 13.714844 -35.523438 L 3.679688 -35.523438 C 3.410156 -35.523438 3.34375 -35.390625 3.34375 -35.191406 C 3.34375 -34.988281 3.410156 -34.855469 3.546875 -34.855469 L 5.21875 -34.1875 C 6.222656 -33.785156 6.757812 -33.050781 6.757812 -31.980469 L 6.757812 -3.546875 C 6.757812 -2.410156 6.222656 -1.671875 5.21875 -1.339844 L 3.546875 -0.667969 C 3.410156 -0.535156 3.34375 -0.46875 3.34375 -0.335938 C 3.34375 -0.0664062 3.410156 0 3.679688 0 L 13.714844 0 C 13.914062 0 14.050781 -0.0664062 14.050781 -0.335938 C 14.050781 -0.46875 13.980469 -0.535156 13.847656 -0.667969 Z M 13.847656 -0.667969 "/></g></g></g><g fill="#000000" fill-opacity="1"><g transform="translate(536.290676, 447.383099)"><g><path d="M 41.34375 -0.601562 L 41.34375 -0.667969 L 40.140625 -1.136719 C 39.472656 -1.339844 38.800781 -1.738281 38 -2.273438 C 37.195312 -2.808594 36.660156 -3.410156 36.394531 -4.082031 L 24.484375 -33.449219 L 23.75 -35.324219 C 23.617188 -35.523438 23.480469 -35.660156 23.28125 -35.660156 L 18.265625 -35.660156 C 17.996094 -35.660156 17.929688 -35.523438 17.929688 -35.324219 C 17.929688 -35.121094 17.996094 -34.988281 18.128906 -34.988281 L 19.132812 -34.585938 C 19.601562 -34.386719 19.9375 -34.050781 20.136719 -33.652344 C 20.269531 -33.25 20.269531 -32.78125 20.070312 -32.378906 L 8.628906 -4.148438 C 8.296875 -3.480469 7.761719 -2.875 6.957031 -2.339844 C 6.15625 -1.804688 5.417969 -1.40625 4.816406 -1.203125 L 3.613281 -0.734375 C 3.480469 -0.601562 3.410156 -0.535156 3.410156 -0.402344 C 3.410156 -0.132812 3.480469 -0.0664062 3.746094 -0.0664062 L 12.308594 -0.0664062 C 12.511719 -0.0664062 12.644531 -0.132812 12.644531 -0.402344 C 12.644531 -0.535156 12.578125 -0.601562 12.445312 -0.734375 C 11.707031 -0.871094 11.171875 -1.269531 10.90625 -1.875 C 10.570312 -2.476562 10.570312 -3.078125 10.839844 -3.746094 L 13.445312 -10.167969 C 13.582031 -10.570312 13.847656 -10.839844 14.382812 -10.839844 L 28.835938 -10.839844 C 29.300781 -10.839844 29.636719 -10.570312 29.769531 -10.167969 L 32.3125 -3.878906 C 32.582031 -3.210938 32.582031 -2.542969 32.3125 -1.875 C 31.980469 -1.203125 31.445312 -0.804688 30.773438 -0.601562 C 30.640625 -0.46875 30.574219 -0.402344 30.574219 -0.269531 C 30.574219 0 30.640625 0.0664062 30.910156 0.0664062 L 41.210938 0.0664062 C 41.410156 0.0664062 41.546875 0 41.546875 -0.269531 C 41.546875 -0.402344 41.480469 -0.46875 41.34375 -0.601562 Z M 28.367188 -12.980469 L 14.785156 -12.980469 C 14.585938 -12.980469 14.515625 -13.046875 14.652344 -13.246094 L 21.410156 -30.105469 C 21.476562 -30.304688 21.609375 -30.304688 21.742188 -30.105469 L 28.5 -13.246094 C 28.566406 -13.046875 28.5 -12.980469 28.367188 -12.980469 Z M 28.367188 -12.980469 "/></g></g></g><g fill="#000000" fill-opacity="1"><g transform="translate(581.247133, 447.383099)"><g/></g></g><g fill="#000000" fill-opacity="1"><g transform="translate(604.461254, 447.383099)"><g><path d="M 28.902344 -6.089844 L 28.765625 -5.621094 C 28.566406 -5.621094 28.433594 -5.554688 28.433594 -5.417969 L 27.964844 -4.214844 C 27.695312 -3.546875 27.363281 -3.078125 26.828125 -2.742188 C 26.292969 -2.339844 25.691406 -2.207031 25.085938 -2.207031 L 11.238281 -2.207031 C 10.703125 -2.207031 10.503906 -2.410156 10.503906 -2.945312 L 10.503906 -20.605469 C 10.503906 -21.074219 10.703125 -21.339844 11.238281 -21.339844 L 19.667969 -21.339844 C 20.339844 -21.339844 20.941406 -21.140625 21.476562 -20.804688 C 22.011719 -20.40625 22.410156 -19.9375 22.679688 -19.335938 L 23.148438 -18.128906 C 23.148438 -17.996094 23.28125 -17.929688 23.480469 -17.929688 C 23.683594 -17.929688 23.816406 -17.996094 23.816406 -18.265625 L 23.816406 -26.625 C 23.816406 -26.828125 23.683594 -26.960938 23.480469 -26.960938 C 23.28125 -26.960938 23.148438 -26.894531 23.148438 -26.761719 L 22.679688 -25.554688 C 22.410156 -24.886719 22.011719 -24.417969 21.476562 -24.085938 C 20.941406 -23.683594 20.339844 -23.550781 19.667969 -23.550781 L 11.238281 -23.550781 C 10.703125 -23.550781 10.503906 -23.75 10.503906 -24.285156 L 10.503906 -32.914062 C 10.503906 -33.382812 10.703125 -33.652344 11.238281 -33.652344 L 23.148438 -33.652344 C 23.75 -33.585938 24.351562 -33.382812 24.886719 -33.050781 C 25.421875 -32.648438 25.757812 -32.179688 26.023438 -31.578125 L 26.492188 -30.371094 C 26.492188 -30.238281 26.625 -30.171875 26.828125 -30.171875 C 27.027344 -30.171875 27.160156 -30.238281 27.160156 -30.507812 L 27.160156 -35.121094 C 27.160156 -35.589844 26.894531 -35.859375 26.425781 -35.859375 L 3.746094 -35.859375 C 3.480469 -35.859375 3.410156 -35.726562 3.410156 -35.523438 C 3.410156 -35.324219 3.480469 -35.191406 3.613281 -35.191406 L 5.21875 -34.585938 C 6.222656 -34.1875 6.757812 -33.449219 6.757812 -32.378906 L 6.757812 -3.878906 C 6.757812 -2.742188 6.222656 -2.007812 5.21875 -1.671875 L 3.613281 -1.070312 C 3.480469 -0.9375 3.410156 -0.871094 3.410156 -0.734375 C 3.410156 -0.46875 3.480469 -0.402344 3.746094 -0.402344 L 28.5 -0.402344 C 28.96875 -0.402344 29.234375 -0.601562 29.234375 -1.136719 L 29.234375 -5.753906 C 29.234375 -5.953125 29.101562 -6.089844 28.902344 -6.089844 Z M 28.902344 -6.089844 "/></g></g></g><g fill="#000000" fill-opacity="1"><g transform="translate(636.974425, 447.383099)"><g><path d="M 35.589844 -0.601562 L 35.589844 -0.667969 L 34.386719 -1.136719 C 33.71875 -1.339844 33.25 -1.738281 32.914062 -2.273438 C 32.515625 -2.808594 32.378906 -3.480469 32.378906 -4.148438 L 32.378906 -31.578125 C 32.378906 -32.246094 32.515625 -32.847656 32.914062 -33.382812 C 33.25 -33.917969 33.71875 -34.320312 34.386719 -34.585938 L 35.589844 -35.054688 C 35.726562 -35.054688 35.792969 -35.191406 35.792969 -35.390625 C 35.792969 -35.589844 35.660156 -35.726562 35.457031 -35.726562 L 27.09375 -35.726562 C 26.828125 -35.726562 26.761719 -35.589844 26.761719 -35.390625 C 26.761719 -35.191406 26.828125 -35.054688 26.960938 -35.054688 L 28.164062 -34.585938 C 28.765625 -34.320312 29.234375 -33.984375 29.636719 -33.449219 C 29.972656 -32.914062 30.171875 -32.3125 30.171875 -31.644531 L 30.171875 -7.425781 C 30.171875 -7.292969 30.105469 -7.226562 30.039062 -7.226562 C 29.972656 -7.160156 29.90625 -7.160156 29.90625 -7.292969 L 9.230469 -35.390625 C 9.097656 -35.589844 8.898438 -35.726562 8.695312 -35.726562 L 3.746094 -35.726562 C 3.480469 -35.726562 3.410156 -35.589844 3.410156 -35.390625 C 3.410156 -35.191406 3.480469 -35.054688 3.613281 -35.054688 L 4.816406 -34.585938 C 5.417969 -34.320312 5.886719 -33.917969 6.289062 -33.382812 C 6.625 -32.847656 6.824219 -32.246094 6.824219 -31.578125 L 6.824219 -4.148438 C 6.824219 -3.480469 6.625 -2.808594 6.289062 -2.273438 C 5.886719 -1.738281 5.417969 -1.339844 4.816406 -1.136719 L 3.613281 -0.667969 C 3.480469 -0.535156 3.410156 -0.46875 3.410156 -0.335938 C 3.410156 -0.0664062 3.480469 0 3.746094 0 L 12.109375 0 C 12.308594 0 12.445312 -0.0664062 12.445312 -0.335938 C 12.445312 -0.46875 12.375 -0.535156 12.242188 -0.667969 L 11.039062 -1.136719 C 10.371094 -1.339844 9.902344 -1.738281 9.566406 -2.273438 C 9.164062 -2.808594 9.03125 -3.34375 9.03125 -4.015625 L 9.03125 -28.230469 C 9.03125 -28.300781 9.03125 -28.367188 9.097656 -28.433594 C 9.164062 -28.433594 9.230469 -28.433594 9.300781 -28.367188 L 29.972656 -0.269531 C 30.105469 0 30.238281 0.0664062 30.507812 0.0664062 L 35.457031 0.0664062 C 35.660156 0.0664062 35.792969 0 35.792969 -0.269531 C 35.792969 -0.402344 35.726562 -0.46875 35.589844 -0.601562 Z M 35.589844 -0.601562 "/></g></g></g><g fill="#000000" fill-opacity="1"><g transform="translate(676.177542, 447.383099)"><g/></g></g><g fill="#000000" fill-opacity="1"><g transform="translate(699.391663, 447.383099)"><g><path d="M 42.148438 -46.832031 L 31.042969 -46.832031 C 30.707031 -46.832031 30.574219 -46.628906 30.574219 -46.363281 C 30.574219 -46.09375 30.640625 -45.960938 30.910156 -45.894531 L 33.117188 -45.023438 C 33.71875 -44.757812 34.1875 -44.355469 34.585938 -43.820312 C 34.921875 -43.285156 35.121094 -42.683594 35.121094 -42.015625 L 35.121094 -12.910156 C 35.121094 -11.171875 34.722656 -9.632812 33.917969 -8.363281 C 33.117188 -7.023438 32.113281 -5.953125 30.910156 -5.152344 C 29.703125 -4.347656 28.367188 -3.746094 26.960938 -3.34375 C 25.488281 -2.945312 24.152344 -2.742188 22.945312 -2.742188 C 21.675781 -2.742188 20.472656 -2.945312 19.265625 -3.34375 C 18.0625 -3.746094 16.992188 -4.347656 16.054688 -5.152344 C 15.121094 -5.953125 14.316406 -7.023438 13.78125 -8.363281 C 13.179688 -9.632812 12.910156 -11.171875 12.910156 -12.910156 L 12.910156 -42.015625 C 12.910156 -42.683594 13.046875 -43.285156 13.445312 -43.820312 C 13.78125 -44.355469 14.25 -44.757812 14.917969 -45.023438 L 17.125 -45.894531 C 17.328125 -45.960938 17.460938 -46.09375 17.460938 -46.363281 C 17.460938 -46.628906 17.261719 -46.832031 16.992188 -46.832031 L 3.878906 -46.832031 C 3.546875 -46.832031 3.410156 -46.628906 3.410156 -46.363281 C 3.410156 -46.09375 3.480469 -45.960938 3.746094 -45.894531 L 5.953125 -45.023438 C 6.554688 -44.757812 7.023438 -44.355469 7.425781 -43.820312 C 7.761719 -43.285156 7.960938 -42.683594 7.960938 -42.015625 L 7.960938 -15.050781 C 7.960938 -12.710938 8.363281 -10.570312 9.164062 -8.695312 C 9.96875 -6.757812 11.105469 -5.085938 12.710938 -3.679688 C 14.050781 -2.410156 15.65625 -1.472656 17.394531 -0.804688 C 19.132812 -0.132812 21.007812 0.132812 23.015625 0.132812 C 24.886719 0.132812 26.695312 -0.132812 28.5 -0.804688 C 30.304688 -1.472656 31.910156 -2.410156 33.316406 -3.679688 C 34.722656 -4.949219 35.859375 -6.554688 36.730469 -8.429688 C 37.597656 -10.304688 38.066406 -12.511719 38.066406 -15.050781 L 38.066406 -42.015625 C 38.066406 -42.683594 38.199219 -43.285156 38.601562 -43.820312 C 38.9375 -44.355469 39.40625 -44.757812 40.074219 -45.023438 L 42.28125 -45.894531 C 42.480469 -45.960938 42.617188 -46.09375 42.617188 -46.363281 C 42.617188 -46.628906 42.414062 -46.832031 42.148438 -46.832031 Z M 42.148438 -46.832031 "/></g></g></g><g fill="#000000" fill-opacity="1"><g transform="translate(745.217806, 447.383099)"><g><path d="M 33.183594 -0.667969 L 33.050781 -0.667969 L 31.777344 -1.136719 C 29.636719 -1.941406 28.03125 -3.34375 27.027344 -5.484375 L 21.140625 -17.058594 C 21.007812 -17.195312 21.074219 -17.328125 21.273438 -17.328125 C 22.746094 -17.460938 24.015625 -17.796875 25.085938 -18.398438 C 26.160156 -19 27.09375 -19.734375 27.832031 -20.605469 C 28.566406 -21.476562 29.101562 -22.410156 29.503906 -23.480469 C 29.90625 -24.484375 30.105469 -25.488281 30.105469 -26.425781 C 30.105469 -27.496094 29.835938 -28.632812 29.4375 -29.769531 C 29.035156 -30.839844 28.367188 -31.84375 27.5625 -32.714844 C 26.761719 -33.515625 25.691406 -34.253906 24.484375 -34.789062 C 23.214844 -35.324219 21.808594 -35.589844 20.203125 -35.589844 L 3.679688 -35.589844 C 3.410156 -35.589844 3.34375 -35.457031 3.34375 -35.257812 C 3.34375 -35.054688 3.410156 -34.921875 3.546875 -34.921875 L 4.75 -34.453125 C 5.351562 -34.1875 5.820312 -33.785156 6.222656 -33.25 C 6.554688 -32.714844 6.757812 -32.113281 6.757812 -31.445312 L 6.757812 -3.480469 C 6.757812 -2.339844 6.222656 -1.605469 5.21875 -1.269531 L 3.546875 -0.601562 C 3.410156 -0.46875 3.34375 -0.402344 3.34375 -0.269531 C 3.34375 0 3.410156 0.0664062 3.679688 0.0664062 L 13.714844 0.0664062 C 13.914062 0.0664062 14.050781 0 14.050781 -0.269531 C 14.050781 -0.402344 13.980469 -0.46875 13.847656 -0.601562 L 12.175781 -1.269531 C 11.105469 -1.605469 10.636719 -2.339844 10.636719 -3.480469 L 10.636719 -16.457031 C 10.636719 -16.925781 10.839844 -17.195312 11.375 -17.195312 L 16.457031 -17.195312 C 16.726562 -17.195312 16.992188 -17.058594 17.125 -16.859375 L 23.882812 -3.480469 C 24.484375 -2.339844 25.289062 -1.472656 26.292969 -0.871094 C 27.296875 -0.269531 28.367188 0 29.570312 0 L 33.050781 0 C 33.25 0 33.382812 -0.0664062 33.382812 -0.335938 C 33.382812 -0.46875 33.316406 -0.535156 33.183594 -0.667969 Z M 20.339844 -19.535156 L 11.441406 -19.46875 C 10.90625 -19.46875 10.703125 -19.667969 10.703125 -20.203125 L 10.703125 -32.847656 C 10.703125 -33.316406 10.90625 -33.585938 11.441406 -33.585938 L 20.339844 -33.585938 C 22.410156 -33.585938 23.949219 -32.847656 24.953125 -31.511719 C 25.890625 -30.105469 26.425781 -28.433594 26.425781 -26.558594 C 26.425781 -24.417969 25.890625 -22.679688 24.953125 -21.410156 C 24.015625 -20.136719 22.480469 -19.535156 20.339844 -19.535156 Z M 20.339844 -19.535156 "/></g></g></g><g fill="#000000" fill-opacity="1"><g transform="translate(781.81182, 447.383099)"><g><path d="M 21.140625 -35.660156 C 18.664062 -35.660156 16.324219 -35.191406 14.183594 -34.253906 C 12.042969 -33.316406 10.101562 -31.980469 8.496094 -30.371094 C 6.890625 -28.765625 5.621094 -26.828125 4.683594 -24.6875 C 3.746094 -22.546875 3.277344 -20.203125 3.277344 -17.796875 C 3.277344 -15.320312 3.746094 -12.980469 4.683594 -10.839844 C 5.621094 -8.695312 6.890625 -6.757812 8.496094 -5.152344 C 10.101562 -3.546875 12.042969 -2.273438 14.183594 -1.339844 C 16.324219 -0.402344 18.664062 0.0664062 21.140625 0.0664062 C 23.550781 0.0664062 25.890625 -0.402344 28.03125 -1.339844 C 30.171875 -2.273438 32.113281 -3.546875 33.71875 -5.152344 C 35.324219 -6.757812 36.660156 -8.695312 37.597656 -10.839844 C 38.535156 -12.980469 39.003906 -15.320312 39.003906 -17.796875 C 39.003906 -20.203125 38.535156 -22.546875 37.597656 -24.6875 C 36.660156 -26.828125 35.324219 -28.765625 33.71875 -30.371094 C 32.113281 -31.980469 30.171875 -33.316406 28.03125 -34.253906 C 25.890625 -35.191406 23.550781 -35.660156 21.140625 -35.660156 Z M 21.140625 -2.207031 C 18.933594 -2.207031 16.992188 -2.609375 15.253906 -3.546875 C 13.515625 -4.414062 12.042969 -5.621094 10.839844 -7.089844 C 9.632812 -8.5625 8.695312 -10.234375 8.027344 -12.109375 C 7.359375 -13.980469 7.089844 -15.855469 7.089844 -17.796875 C 7.089844 -19.667969 7.359375 -21.609375 7.960938 -23.480469 C 8.496094 -25.355469 9.367188 -27.027344 10.570312 -28.5 C 11.773438 -29.972656 13.246094 -31.109375 14.984375 -32.046875 C 16.726562 -32.914062 18.730469 -33.382812 21.074219 -33.382812 C 23.480469 -33.382812 25.554688 -32.914062 27.363281 -32.046875 C 29.101562 -31.109375 30.574219 -29.972656 31.710938 -28.5 C 32.847656 -27.027344 33.71875 -25.355469 34.253906 -23.480469 C 34.789062 -21.609375 35.121094 -19.667969 35.121094 -17.796875 C 35.121094 -15.855469 34.789062 -13.980469 34.1875 -12.109375 C 33.515625 -10.234375 32.648438 -8.5625 31.445312 -7.089844 C 30.238281 -5.621094 28.835938 -4.414062 27.09375 -3.546875 C 25.355469 -2.609375 23.347656 -2.207031 21.140625 -2.207031 Z M 21.140625 -2.207031 "/></g></g></g><g fill="#000000" fill-opacity="1"><g transform="translate(824.159219, 447.383099)"><g><path d="M 28.632812 -5.6875 L 28.765625 -5.621094 C 28.566406 -5.621094 28.433594 -5.554688 28.433594 -5.417969 L 27.964844 -4.214844 C 27.695312 -3.546875 27.363281 -3.078125 26.828125 -2.742188 C 26.292969 -2.339844 25.691406 -2.140625 25.085938 -2.140625 L 11.238281 -2.140625 C 10.703125 -2.140625 10.503906 -2.339844 10.503906 -2.875 L 10.503906 -32.046875 C 10.503906 -33.117188 10.972656 -33.851562 12.042969 -34.253906 L 13.714844 -34.921875 C 13.847656 -34.921875 13.914062 -35.054688 13.914062 -35.257812 C 13.914062 -35.457031 13.78125 -35.589844 13.582031 -35.589844 L 3.546875 -35.589844 C 3.277344 -35.589844 3.210938 -35.457031 3.210938 -35.257812 C 3.210938 -35.054688 3.277344 -34.921875 3.410156 -34.921875 L 5.085938 -34.253906 C 6.089844 -33.851562 6.625 -33.117188 6.625 -32.046875 L 6.625 -3.613281 C 6.625 -2.476562 6.089844 -1.738281 5.085938 -1.40625 L 3.410156 -0.734375 C 3.277344 -0.601562 3.210938 -0.535156 3.210938 -0.402344 C 3.210938 -0.132812 3.277344 -0.0664062 3.546875 -0.0664062 L 28.632812 -0.0664062 C 28.835938 -0.0664062 28.96875 -0.132812 28.96875 -0.402344 L 28.96875 -5.351562 C 28.96875 -5.554688 28.835938 -5.6875 28.632812 -5.6875 Z M 28.632812 -5.6875 "/></g></g></g><g fill="#000000" fill-opacity="1"><g transform="translate(856.672391, 447.383099)"><g><path d="M 21.140625 -35.660156 C 18.664062 -35.660156 16.324219 -35.191406 14.183594 -34.253906 C 12.042969 -33.316406 10.101562 -31.980469 8.496094 -30.371094 C 6.890625 -28.765625 5.621094 -26.828125 4.683594 -24.6875 C 3.746094 -22.546875 3.277344 -20.203125 3.277344 -17.796875 C 3.277344 -15.320312 3.746094 -12.980469 4.683594 -10.839844 C 5.621094 -8.695312 6.890625 -6.757812 8.496094 -5.152344 C 10.101562 -3.546875 12.042969 -2.273438 14.183594 -1.339844 C 16.324219 -0.402344 18.664062 0.0664062 21.140625 0.0664062 C 23.550781 0.0664062 25.890625 -0.402344 28.03125 -1.339844 C 30.171875 -2.273438 32.113281 -3.546875 33.71875 -5.152344 C 35.324219 -6.757812 36.660156 -8.695312 37.597656 -10.839844 C 38.535156 -12.980469 39.003906 -15.320312 39.003906 -17.796875 C 39.003906 -20.203125 38.535156 -22.546875 37.597656 -24.6875 C 36.660156 -26.828125 35.324219 -28.765625 33.71875 -30.371094 C 32.113281 -31.980469 30.171875 -33.316406 28.03125 -34.253906 C 25.890625 -35.191406 23.550781 -35.660156 21.140625 -35.660156 Z M 21.140625 -2.207031 C 18.933594 -2.207031 16.992188 -2.609375 15.253906 -3.546875 C 13.515625 -4.414062 12.042969 -5.621094 10.839844 -7.089844 C 9.632812 -8.5625 8.695312 -10.234375 8.027344 -12.109375 C 7.359375 -13.980469 7.089844 -15.855469 7.089844 -17.796875 C 7.089844 -19.667969 7.359375 -21.609375 7.960938 -23.480469 C 8.496094 -25.355469 9.367188 -27.027344 10.570312 -28.5 C 11.773438 -29.972656 13.246094 -31.109375 14.984375 -32.046875 C 16.726562 -32.914062 18.730469 -33.382812 21.074219 -33.382812 C 23.480469 -33.382812 25.554688 -32.914062 27.363281 -32.046875 C 29.101562 -31.109375 30.574219 -29.972656 31.710938 -28.5 C 32.847656 -27.027344 33.71875 -25.355469 34.253906 -23.480469 C 34.789062 -21.609375 35.121094 -19.667969 35.121094 -17.796875 C 35.121094 -15.855469 34.789062 -13.980469 34.1875 -12.109375 C 33.515625 -10.234375 32.648438 -8.5625 31.445312 -7.089844 C 30.238281 -5.621094 28.835938 -4.414062 27.09375 -3.546875 C 25.355469 -2.609375 23.347656 -2.207031 21.140625 -2.207031 Z M 21.140625 -2.207031 "/></g></g></g><g fill="#000000" fill-opacity="1"><g transform="translate(899.01979, 447.383099)"><g><path d="M 33.851562 -14.585938 L 33.984375 -14.316406 L 23.949219 -14.316406 C 23.683594 -14.316406 23.617188 -14.183594 23.617188 -13.980469 C 23.617188 -13.78125 23.683594 -13.648438 23.816406 -13.648438 L 27.363281 -12.242188 C 28.367188 -11.839844 28.902344 -11.105469 28.902344 -10.035156 L 28.902344 -7.359375 C 28.902344 -5.820312 28.230469 -4.683594 26.960938 -3.878906 C 26.558594 -3.613281 26.160156 -3.410156 25.757812 -3.277344 C 24.953125 -3.011719 24.152344 -2.742188 23.28125 -2.609375 C 22.34375 -2.410156 21.410156 -2.339844 20.339844 -2.339844 C 18.0625 -2.339844 16.054688 -2.808594 14.382812 -3.8125 C 12.710938 -4.816406 11.375 -6.089844 10.304688 -7.625 C 9.230469 -9.164062 8.429688 -10.839844 7.894531 -12.710938 C 7.359375 -14.515625 7.089844 -16.257812 7.089844 -17.996094 C 7.089844 -19.871094 7.359375 -21.609375 7.960938 -23.28125 C 8.496094 -24.953125 9.367188 -26.425781 10.4375 -27.765625 C 10.972656 -28.433594 11.640625 -29.167969 12.375 -29.835938 C 13.113281 -30.507812 13.914062 -31.175781 14.71875 -31.710938 C 15.519531 -32.246094 16.457031 -32.714844 17.394531 -33.117188 C 18.332031 -33.449219 19.265625 -33.652344 20.339844 -33.652344 C 21.476562 -33.652344 22.546875 -33.449219 23.550781 -33.183594 C 24.484375 -32.914062 25.355469 -32.515625 26.160156 -32.113281 C 27.363281 -31.375 28.367188 -30.507812 29.300781 -29.4375 C 30.171875 -28.367188 30.839844 -27.160156 31.375 -25.890625 L 31.644531 -25.222656 C 31.644531 -25.085938 31.777344 -25.019531 31.980469 -25.019531 C 32.179688 -25.019531 32.3125 -25.085938 32.3125 -25.355469 L 32.3125 -35.390625 C 32.3125 -35.589844 32.179688 -35.726562 31.980469 -35.726562 C 31.777344 -35.726562 31.644531 -35.660156 31.644531 -35.523438 L 31.242188 -34.519531 C 31.042969 -34.050781 30.707031 -33.785156 30.304688 -33.652344 C 29.835938 -33.515625 29.4375 -33.585938 29.035156 -33.851562 C 28.097656 -34.386719 26.894531 -34.921875 25.488281 -35.324219 C 24.085938 -35.726562 22.34375 -35.992188 20.339844 -35.992188 C 14.984375 -35.992188 10.703125 -34.121094 7.492188 -30.371094 C 6.089844 -28.765625 5.015625 -26.894531 4.28125 -24.820312 C 3.546875 -22.679688 3.210938 -20.472656 3.210938 -18.195312 C 3.210938 -15.921875 3.546875 -13.78125 4.28125 -11.640625 C 5.015625 -9.5 6.089844 -7.625 7.558594 -5.953125 C 8.964844 -4.28125 10.769531 -2.945312 12.910156 -1.941406 C 15.050781 -0.871094 17.527344 -0.402344 20.339844 -0.402344 L 21.207031 -0.402344 C 21.476562 -0.402344 21.742188 -0.402344 22.011719 -0.46875 C 24.152344 -0.601562 25.890625 -1.003906 27.230469 -1.671875 C 28.566406 -2.273438 29.570312 -2.945312 30.371094 -3.613281 C 30.574219 -3.746094 30.773438 -3.945312 30.976562 -4.082031 C 31.109375 -4.214844 31.308594 -4.414062 31.445312 -4.550781 L 31.644531 -4.75 C 31.710938 -4.882812 31.84375 -5.015625 32.046875 -5.21875 C 32.445312 -5.621094 32.648438 -6.222656 32.648438 -6.890625 L 32.648438 -11.910156 C 32.648438 -12.84375 33.050781 -13.515625 33.984375 -13.914062 C 34.121094 -13.914062 34.1875 -14.050781 34.1875 -14.25 C 34.1875 -14.449219 34.050781 -14.585938 33.851562 -14.585938 Z M 33.851562 -14.585938 "/></g></g></g><g fill="#000000" fill-opacity="1"><g transform="translate(936.751124, 447.383099)"><g><path d="M 13.847656 -0.667969 L 12.175781 -1.339844 C 11.105469 -1.671875 10.636719 -2.410156 10.636719 -3.546875 L 10.636719 -31.980469 C 10.636719 -33.050781 11.105469 -33.785156 12.175781 -34.1875 L 13.847656 -34.855469 C 13.980469 -34.855469 14.050781 -34.988281 14.050781 -35.191406 C 14.050781 -35.390625 13.914062 -35.523438 13.714844 -35.523438 L 3.679688 -35.523438 C 3.410156 -35.523438 3.34375 -35.390625 3.34375 -35.191406 C 3.34375 -34.988281 3.410156 -34.855469 3.546875 -34.855469 L 5.21875 -34.1875 C 6.222656 -33.785156 6.757812 -33.050781 6.757812 -31.980469 L 6.757812 -3.546875 C 6.757812 -2.410156 6.222656 -1.671875 5.21875 -1.339844 L 3.546875 -0.667969 C 3.410156 -0.535156 3.34375 -0.46875 3.34375 -0.335938 C 3.34375 -0.0664062 3.410156 0 3.679688 0 L 13.714844 0 C 13.914062 0 14.050781 -0.0664062 14.050781 -0.335938 C 14.050781 -0.46875 13.980469 -0.535156 13.847656 -0.667969 Z M 4.75 -39.335938 L 5.152344 -38.9375 C 5.285156 -38.800781 5.417969 -38.734375 5.621094 -38.734375 C 5.820312 -38.734375 6.019531 -38.800781 6.15625 -38.9375 L 12.511719 -44.019531 C 12.910156 -44.355469 12.910156 -44.757812 12.511719 -45.15625 L 11.375 -46.296875 C 10.972656 -46.695312 10.570312 -46.695312 10.304688 -46.296875 L 4.75 -40.339844 C 4.617188 -40.207031 4.550781 -40.007812 4.550781 -39.804688 C 4.550781 -39.605469 4.617188 -39.472656 4.75 -39.335938 Z M 4.75 -39.335938 "/></g></g></g><g fill="#000000" fill-opacity="1"><g transform="translate(954.144984, 447.383099)"><g><path d="M 41.34375 -0.601562 L 41.34375 -0.667969 L 40.140625 -1.136719 C 39.472656 -1.339844 38.800781 -1.738281 38 -2.273438 C 37.195312 -2.808594 36.660156 -3.410156 36.394531 -4.082031 L 24.484375 -33.449219 L 23.75 -35.324219 C 23.617188 -35.523438 23.480469 -35.660156 23.28125 -35.660156 L 18.265625 -35.660156 C 17.996094 -35.660156 17.929688 -35.523438 17.929688 -35.324219 C 17.929688 -35.121094 17.996094 -34.988281 18.128906 -34.988281 L 19.132812 -34.585938 C 19.601562 -34.386719 19.9375 -34.050781 20.136719 -33.652344 C 20.269531 -33.25 20.269531 -32.78125 20.070312 -32.378906 L 8.628906 -4.148438 C 8.296875 -3.480469 7.761719 -2.875 6.957031 -2.339844 C 6.15625 -1.804688 5.417969 -1.40625 4.816406 -1.203125 L 3.613281 -0.734375 C 3.480469 -0.601562 3.410156 -0.535156 3.410156 -0.402344 C 3.410156 -0.132812 3.480469 -0.0664062 3.746094 -0.0664062 L 12.308594 -0.0664062 C 12.511719 -0.0664062 12.644531 -0.132812 12.644531 -0.402344 C 12.644531 -0.535156 12.578125 -0.601562 12.445312 -0.734375 C 11.707031 -0.871094 11.171875 -1.269531 10.90625 -1.875 C 10.570312 -2.476562 10.570312 -3.078125 10.839844 -3.746094 L 13.445312 -10.167969 C 13.582031 -10.570312 13.847656 -10.839844 14.382812 -10.839844 L 28.835938 -10.839844 C 29.300781 -10.839844 29.636719 -10.570312 29.769531 -10.167969 L 32.3125 -3.878906 C 32.582031 -3.210938 32.582031 -2.542969 32.3125 -1.875 C 31.980469 -1.203125 31.445312 -0.804688 30.773438 -0.601562 C 30.640625 -0.46875 30.574219 -0.402344 30.574219 -0.269531 C 30.574219 0 30.640625 0.0664062 30.910156 0.0664062 L 41.210938 0.0664062 C 41.410156 0.0664062 41.546875 0 41.546875 -0.269531 C 41.546875 -0.402344 41.480469 -0.46875 41.34375 -0.601562 Z M 28.367188 -12.980469 L 14.785156 -12.980469 C 14.585938 -12.980469 14.515625 -13.046875 14.652344 -13.246094 L 21.410156 -30.105469 C 21.476562 -30.304688 21.609375 -30.304688 21.742188 -30.105469 L 28.5 -13.246094 C 28.566406 -13.046875 28.5 -12.980469 28.367188 -12.980469 Z M 28.367188 -12.980469 "/></g></g></g></svg>